<svg xmlns="http://www.w3.org/2000/svg" xmlns:xlink="http://www.w3.org/1999/xlink" viewBox="0 0 1287.117 1449.302"><defs><linearGradient id="a" x1="492.421" x2="679.815" y1="1234.299" y2="1234.299" gradientUnits="userSpaceOnUse"><stop offset=".379" stop-color="#4141aa" class="stopColor4141aa svgShape"/><stop offset=".596" stop-color="#20196f" class="stopColor20196f svgShape"/></linearGradient><linearGradient id="b" x1="587.471" x2="587.471" y1="1211.234" y2="1179.319" gradientUnits="userSpaceOnUse"><stop offset="0" stop-color="#ed995a" class="stopColored995a svgShape"/><stop offset="1" stop-color="#4141aa" class="stopColor4141aa svgShape"/></linearGradient><linearGradient id="n" x1="171.346" x2="317.041" y1="854.324" y2="854.324" xlink:href="#a"/><linearGradient id="o" x1="244.86" x2="244.86" y1="833.433" y2="813.433" xlink:href="#b"/><linearGradient id="p" x1="996.475" x2="1088.751" y1="962.713" y2="962.713" xlink:href="#a"/><linearGradient id="q" x1="1042.613" x2="1042.613" y1="949.308" y2="927.261" gradientUnits="userSpaceOnUse"><stop offset="0" stop-color="#ba6038" class="stopColorba6038 svgShape"/><stop offset=".113" stop-color="#9b502f" class="stopColor9b502f svgShape"/><stop offset=".338" stop-color="#64341e" class="stopColor64341e svgShape"/><stop offset=".546" stop-color="#391d11" class="stopColor391d11 svgShape"/><stop offset=".733" stop-color="#1a0d08" class="stopColor1a0d08 svgShape"/><stop offset=".89" stop-color="#070402" class="stopColor070402 svgShape"/><stop offset="1" stop-color="#000000" class="stopColor000000 svgShape"/></linearGradient><linearGradient id="r" x1="692.863" x2="962.566" y1="256.496" y2="723.635" gradientUnits="userSpaceOnUse"><stop offset=".576" stop-color="#807dfb" class="stopColor807dfb svgShape"/><stop offset=".612" stop-color="#20196f" class="stopColor20196f svgShape"/></linearGradient><linearGradient id="s" x1="922.78" x2="610.78" y1="719.143" y2="315.143" gradientUnits="userSpaceOnUse"><stop offset="0" stop-color="#1e1c6b" class="stopColor1e1c6b svgShape"/><stop offset="1" stop-color="#34318f" class="stopColor34318f svgShape"/></linearGradient><linearGradient id="t" x1="382.044" x2="930.263" y1="777.886" y2="777.886" gradientUnits="userSpaceOnUse"><stop offset=".562" stop-color="#4141aa" class="stopColor4141aa svgShape"/><stop offset=".612" stop-color="#20196f" class="stopColor20196f svgShape"/></linearGradient><linearGradient id="u" x1="492.999" x2="523.513" y1="381.964" y2="381.964" gradientTransform="matrix(.866 .5 -1 .5774 399.18 175.683)" gradientUnits="userSpaceOnUse"><stop offset="0" stop-color="#f1f1f6" class="stopColorf1f1f6 svgShape"/><stop offset="1" stop-color="#ffffff" class="stopColorfff svgShape"/></linearGradient><linearGradient id="c" x1="785.415" x2="821.138" y1="639.004" y2="639.004" gradientTransform="matrix(.866 .5 -1 .5774 710.476 87.202)" gradientUnits="userSpaceOnUse"><stop offset="0" stop-color="#471c0f" class="stopColor471c0f svgShape"/><stop offset=".008" stop-color="#461c0f" class="stopColor461c0f svgShape"/><stop offset=".249" stop-color="#271008" class="stopColor271008 svgShape"/><stop offset=".485" stop-color="#120704" class="stopColor120704 svgShape"/><stop offset=".712" stop-color="#040201" class="stopColor040201 svgShape"/><stop offset=".919" stop-color="#000000" class="stopColor000000 svgShape"/></linearGradient><linearGradient id="d" x1="801.096" x2="818.54" y1="1001.531" y2="1001.531" gradientTransform="matrix(.866 -.5 0 1.1547 52.023 98.284)" gradientUnits="userSpaceOnUse"><stop offset="0" stop-color="#d67747" class="stopColord67747 svgShape"/><stop offset=".23" stop-color="#b26039" class="stopColorb26039 svgShape"/><stop offset=".757" stop-color="#652f1b" class="stopColor652f1b svgShape"/><stop offset="1" stop-color="#471c0f" class="stopColor471c0f svgShape"/></linearGradient><linearGradient id="v" x1="785.416" x2="821.14" y1="608.793" y2="608.793" xlink:href="#c"/><linearGradient id="w" x1="835.983" x2="853.427" y1="1001.531" y2="1001.531" xlink:href="#d"/><linearGradient id="e" x1="802.356" x2="949.761" y1="1088.247" y2="1088.247" gradientTransform="translate(-274.66)" gradientUnits="userSpaceOnUse"><stop offset="0" stop-color="#c2c7e2" class="stopColorc2c7e2 svgShape"/><stop offset=".111" stop-color="#ced2e8" class="stopColorced2e8 svgShape"/><stop offset=".419" stop-color="#e9ebf4" class="stopColore9ebf4 svgShape"/><stop offset=".691" stop-color="#f9fafc" class="stopColorf9fafc svgShape"/><stop offset=".899" stop-color="#ffffff" class="stopColorfff svgShape"/></linearGradient><linearGradient id="x" x1="785.532" x2="932.937" y1="1049.125" y2="1049.125" gradientTransform="translate(-324.3)" xlink:href="#e"/><linearGradient id="f" x1="-136.49" x2="-82.155" y1="1043.941" y2="1043.941" gradientTransform="matrix(-1 0 0 1 362.767 0)" gradientUnits="userSpaceOnUse"><stop offset="0" stop-color="#34318a" class="stopColor34318a svgShape"/><stop offset=".244" stop-color="#3e3c99" class="stopColor3e3c99 svgShape"/><stop offset=".716" stop-color="#5857c2" class="stopColor5857c2 svgShape"/><stop offset="1" stop-color="#696add" class="stopColor696add svgShape"/></linearGradient><linearGradient id="y" x1="447.851" x2="510.14" y1="929.199" y2="929.199" gradientUnits="userSpaceOnUse"><stop offset="0" stop-color="#4241a8" class="stopColor4241a8 svgShape"/><stop offset=".275" stop-color="#363593" class="stopColor363593 svgShape"/><stop offset=".737" stop-color="#252376" class="stopColor252376 svgShape"/><stop offset="1" stop-color="#1e1c6b" class="stopColor1e1c6b svgShape"/></linearGradient><linearGradient id="z" x1="-203.67" x2="-149.335" y1="1083.046" y2="1083.046" xlink:href="#f"/><linearGradient id="A" x1="-180.079" x2="-86.67" y1="953.221" y2="953.221" gradientTransform="matrix(-1 0 0 1 362.767 0)" gradientUnits="userSpaceOnUse"><stop offset="0" stop-color="#1e1c6b" class="stopColor1e1c6b svgShape"/><stop offset=".2" stop-color="#252376" class="stopColor252376 svgShape"/><stop offset=".551" stop-color="#373794" class="stopColor373794 svgShape"/><stop offset="1" stop-color="#5455c2" class="stopColor5455c2 svgShape"/></linearGradient><linearGradient id="g" x1="555.288" x2="570.451" y1="766.931" y2="730.54" gradientUnits="userSpaceOnUse"><stop offset="0" stop-color="#c2c8e7" class="stopColorc2c8e7 svgShape"/><stop offset="1" stop-color="#ffffff" class="stopColorfff svgShape"/></linearGradient><linearGradient id="B" x1="578.985" x2="607.097" y1="813.64" y2="746.171" xlink:href="#g"/><linearGradient id="C" x1="530.515" x2="556.627" y1="738.759" y2="738.759" gradientUnits="userSpaceOnUse"><stop offset="0" stop-color="#000000" class="stopColor000000 svgShape"/><stop offset=".119" stop-color="#0e0704" class="stopColor0e0704 svgShape"/><stop offset=".342" stop-color="#321a0f" class="stopColor321a0f svgShape"/><stop offset=".647" stop-color="#6d3821" class="stopColor6d3821 svgShape"/><stop offset="1" stop-color="#ba6038" class="stopColorba6038 svgShape"/></linearGradient><linearGradient id="h" x1="-424.185" x2="-322.723" y1="788.434" y2="788.434" gradientTransform="matrix(-1 0 0 1 123.475 0)" gradientUnits="userSpaceOnUse"><stop offset=".086" stop-color="#4141aa" class="stopColor4141aa svgShape"/><stop offset=".317" stop-color="#4d4db8" class="stopColor4d4db8 svgShape"/><stop offset=".749" stop-color="#6b6bdc" class="stopColor6b6bdc svgShape"/><stop offset="1" stop-color="#7f7ff4" class="stopColor7f7ff4 svgShape"/></linearGradient><linearGradient id="D" x1="473.652" x2="547.66" y1="777.706" y2="777.706" gradientUnits="userSpaceOnUse"><stop offset="0" stop-color="#ba6038" class="stopColorba6038 svgShape"/><stop offset=".353" stop-color="#6d3821" class="stopColor6d3821 svgShape"/><stop offset=".658" stop-color="#321a0f" class="stopColor321a0f svgShape"/><stop offset=".881" stop-color="#0e0704" class="stopColor0e0704 svgShape"/><stop offset="1" stop-color="#000000" class="stopColor000000 svgShape"/></linearGradient><linearGradient id="E" x1="606.187" x2="496.927" y1="773.075" y2="742.181" xlink:href="#h"/><linearGradient id="F" x1="514.487" x2="613.554" y1="743.727" y2="743.727" gradientUnits="userSpaceOnUse"><stop offset="0" stop-color="#471c0f" class="stopColor471c0f svgShape"/><stop offset=".176" stop-color="#552414" class="stopColor552414 svgShape"/><stop offset=".507" stop-color="#793a21" class="stopColor793a21 svgShape"/><stop offset=".955" stop-color="#b45c36" class="stopColorb45c36 svgShape"/><stop offset="1" stop-color="#ba6038" class="stopColorba6038 svgShape"/></linearGradient><linearGradient id="G" x1="522.89" x2="542.305" y1="651.835" y2="651.835" gradientUnits="userSpaceOnUse"><stop offset="0" stop-color="#000000" class="stopColor000000 svgShape"/><stop offset=".54" stop-color="#291009" class="stopColor291009 svgShape"/><stop offset="1" stop-color="#471c0f" class="stopColor471c0f svgShape"/></linearGradient><linearGradient id="i" x1="278.236" x2="364.697" y1="700.143" y2="700.143" gradientUnits="userSpaceOnUse"><stop offset="0" stop-color="#cfd5f1" class="stopColorcfd5f1 svgShape"/><stop offset=".283" stop-color="#e1e5f6" class="stopColore1e5f6 svgShape"/><stop offset=".719" stop-color="#f7f8fd" class="stopColorf7f8fd svgShape"/><stop offset="1" stop-color="#ffffff" class="stopColorfff svgShape"/></linearGradient><linearGradient id="H" x1="1094.266" x2="1172.195" y1="1096.063" y2="1096.063" xlink:href="#i"/><linearGradient id="I" x1="263.314" x2="321.915" y1="1167.668" y2="1167.668" xlink:href="#i"/><radialGradient id="j" cx="551.694" cy="986.631" r="13.075" gradientTransform="matrix(.866 .5 -.866 .5 643.4 282.065)" gradientUnits="userSpaceOnUse"><stop offset="0" stop-color="#ed995a" class="stopColored995a svgShape"/><stop offset=".039" stop-color="#dc8e54" class="stopColordc8e54 svgShape"/><stop offset=".187" stop-color="#a3693e" class="stopColora3693e svgShape"/><stop offset=".335" stop-color="#71492b" class="stopColor71492b svgShape"/><stop offset=".48" stop-color="#482f1b" class="stopColor482f1b svgShape"/><stop offset=".62" stop-color="#291a0f" class="stopColor291a0f svgShape"/><stop offset=".756" stop-color="#120c07" class="stopColor120c07 svgShape"/><stop offset=".885" stop-color="#050302" class="stopColor050302 svgShape"/><stop offset="1" stop-color="#000000" class="stopColor000000 svgShape"/></radialGradient><radialGradient id="k" cx="606.964" cy="986.63" r="13.074" gradientTransform="matrix(.866 .5 -.866 .5 643.4 282.065)" gradientUnits="userSpaceOnUse"><stop offset="0" stop-color="#ba6038" class="stopColorba6038 svgShape"/><stop offset=".074" stop-color="#a25431" class="stopColora25431 svgShape"/><stop offset=".24" stop-color="#713a22" class="stopColor713a22 svgShape"/><stop offset=".406" stop-color="#482516" class="stopColor482516 svgShape"/><stop offset=".567" stop-color="#29150c" class="stopColor29150c svgShape"/><stop offset=".722" stop-color="#120905" class="stopColor120905 svgShape"/><stop offset=".869" stop-color="#050201" class="stopColor050201 svgShape"/><stop offset="1" stop-color="#000000" class="stopColor000000 svgShape"/></radialGradient><radialGradient id="l" cx="433.432" cy="1143.606" r="13.074" gradientTransform="matrix(-.866 .5 .866 .5 253.96 282.065)" xlink:href="#j"/><radialGradient id="m" cx="488.703" cy="1143.605" r="13.074" gradientTransform="matrix(-.866 .5 .866 .5 253.96 282.065)" xlink:href="#k"/></defs><g data-name="Little block" fill="#000000" class="color000 svgShape"><g style="mix-blend-mode:screen" fill="#000000" class="color000 svgShape"><path fill="none" stroke="#171756" stroke-miterlimit="10" stroke-width="2" d="m584.621 1234.753-456.396-263.5a26.606 26.606 0 0 1 0-46.084L547.44 683.135l496.306 286.542Z" class="colorStroke171756 svgStroke"/><path stroke="#171756" stroke-miterlimit="10" stroke-width="2" d="m561.345 1298.755-87.578-50.563c-12.856-7.423-11.244-20.387 3.6-28.957l80.376-46.405c14.844-8.57 37.3-9.501 50.155-2.079l87.578 50.563c12.856 7.422 11.243 20.387-3.601 28.957l-80.375 46.405c-14.845 8.57-37.3 9.501-50.155 2.079ZM1032.208 1001.402l-43.411-25.063c-6.373-3.68-5.574-10.106 1.785-14.354l39.84-23.002c7.359-4.248 18.49-4.71 24.862-1.03l43.411 25.063c6.373 3.679 5.574 10.105-1.785 14.353l-39.84 23.003c-7.359 4.248-18.49 4.71-24.862 1.03ZM227.684 905.162l-64.806-37.416c-9.513-5.492-8.32-15.086 2.665-21.428l59.476-34.338c10.985-6.342 27.601-7.031 37.114-1.539l64.806 37.416c9.513 5.492 8.32 15.086-2.664 21.428l-59.477 34.339c-10.984 6.341-27.6 7.03-37.114 1.538Z" class="colorStroke171756 svgStroke"/></g><path d="M255.422 1044.69c6.254-3.61 16.392-3.61 22.646 0 6.253 3.61 6.253 9.464 0 13.074-6.254 3.61-16.392 3.61-22.646 0-6.253-3.61-6.253-9.464 0-13.074Z" style="mix-blend-mode:screen" fill="url(#j)"/><path d="M303.287 1072.324c6.253-3.61 16.392-3.61 22.645 0 6.254 3.61 6.254 9.464 0 13.075-6.253 3.61-16.391 3.61-22.645 0-6.253-3.61-6.253-9.464 0-13.074Z" style="mix-blend-mode:screen" fill="url(#k)"/><path d="M880.293 1064.047c-6.253-3.61-16.392-3.61-22.645 0s-6.253 9.464 0 13.074c6.253 3.61 16.392 3.61 22.645 0s6.254-9.464 0-13.074Z" style="mix-blend-mode:screen" fill="url(#l)"/><path d="M832.428 1091.681c-6.253-3.61-16.391-3.61-22.645 0s-6.253 9.464 0 13.075c6.253 3.61 16.392 3.61 22.645 0s6.254-9.464 0-13.075Z" style="mix-blend-mode:screen" fill="url(#m)"/><path fill="#7f7ff4" d="m571.568 1244.868-73.12-42.216c-4.018-2.32-6.027-5.36-6.027-8.4 0-3.041 2.01-6.082 6.027-8.402l73.119-42.215a32.163 32.163 0 0 1 29.102 0l73.119 42.215c4.018 2.32 6.027 5.36 6.027 8.402s-2.009 6.08-6.027 8.4l-73.119 42.216a32.162 32.162 0 0 1-29.101 0Z" class="color7f7ff4 svgShape"/><path fill="#4141aa" d="M586.118 1240.348a21.841 21.841 0 0 1-10.548-2.408l-73.121-42.215a1.517 1.517 0 1 1 0-2.947l73.119-42.215a24.317 24.317 0 0 1 21.101 0l73.12 42.215a1.517 1.517 0 1 1 0 2.947l-73.12 42.215a21.855 21.855 0 0 1-10.55 2.408Z" class="color4141aa svgShape"/><path fill="url(#a)" d="m673.788 1202.652-73.119 42.215a32.162 32.162 0 0 1-29.101 0l-73.12-42.215c-4.018-2.32-6.027-5.36-6.027-8.4v26c0 3.04 2.01 6.08 6.027 8.4l73.12 42.215a32.162 32.162 0 0 0 29.101 0l73.119-42.214c4.018-2.32 6.027-5.36 6.027-8.402v-26c0 3.04-2.009 6.082-6.027 8.401Z"/><path d="M610.636 1187.142a3.35 3.35 0 0 0-3.148-.502l-43.07 14.084c-1.111.364-1.501 1.178-.873 1.818a3.365 3.365 0 0 0 3.149.503l43.07-14.085c1.11-.365 1.501-1.177.872-1.818Zm-19.814-3.43c.233-.723-.595-1.42-1.851-1.552l-26.41-2.818a3.503 3.503 0 0 0-2.052.366c-.538.311-.778.755-.64 1.188l4.882 15.247c.232.723 1.439 1.202 2.693 1.069 1.252-.134 2.083-.83 1.851-1.553l-4.271-13.342 23.11 2.466c1.252.134 2.457-.347 2.688-1.071Zm24.25 25.945-4.883-15.246c-.23-.725-1.438-1.205-2.691-1.07-1.254.133-2.084.83-1.852 1.553l4.274 13.341-23.11-2.466c-1.254-.134-2.46.346-2.69 1.07-.234.723.596 1.42 1.851 1.554l26.41 2.818a3.509 3.509 0 0 0 2.054-.368c.538-.31.776-.753.637-1.186Z" style="mix-blend-mode:screen" fill="url(#b)"/><path fill="#7f7ff4" d="m232.88 862.54-56.848-32.82c-3.124-1.804-4.686-4.168-4.686-6.532s1.562-4.728 4.686-6.532l56.848-32.821a25.006 25.006 0 0 1 22.626 0l56.849 32.821c3.124 1.804 4.686 4.168 4.686 6.532s-1.562 4.728-4.686 6.532l-56.848 32.82a25.006 25.006 0 0 1-22.626 0Z" class="color7f7ff4 svgShape"/><path fill="#4141aa" d="M244.194 859.027a16.98 16.98 0 0 1-8.202-1.872l-56.85-32.821a1.18 1.18 0 1 1 0-2.292l56.849-32.821a18.905 18.905 0 0 1 16.406 0l56.848 32.821a1.18 1.18 0 1 1 0 2.292l-56.848 32.82a16.991 16.991 0 0 1-8.203 1.873Z" class="color4141aa svgShape"/><path fill="url(#n)" d="m312.355 829.72-56.848 32.82a25.006 25.006 0 0 1-22.626 0l-56.849-32.82c-3.124-1.804-4.686-4.168-4.686-6.532v20.214c0 2.364 1.562 4.728 4.686 6.532l56.849 32.821a25.006 25.006 0 0 0 22.626 0l56.848-32.821c3.124-1.804 4.686-4.168 4.686-6.532v-20.214c0 2.364-1.562 4.728-4.686 6.531Z"/><path style="mix-blend-mode:screen" fill="url(#o)" d="m262.181 830.433-12.125-7 12.124-7-5.196-3-12.124 7-12.124-7-5.196 3 12.124 7-12.124 7 5.196 3 12.124-7 12.124 7 5.197-3z"/><path fill="#6a6ae2" d="m1035.448 963.209-36.005-20.788c-1.979-1.142-2.968-2.64-2.968-4.137 0-1.497.989-2.994 2.968-4.136l36.004-20.788a15.837 15.837 0 0 1 14.33 0l36.006 20.788c1.978 1.142 2.968 2.64 2.968 4.137 0 1.497-.99 2.994-2.968 4.136l-36.005 20.788a15.838 15.838 0 0 1-14.33 0Z" class="color6a6ae2 svgShape"/><path fill="url(#p)" d="m1085.783 942.421-36.005 20.788a15.838 15.838 0 0 1-14.33 0l-36.005-20.788c-1.979-1.142-2.968-2.64-2.968-4.137v22.22c0 1.497.99 2.994 2.968 4.136l36.005 20.788a15.838 15.838 0 0 0 14.33 0l36.005-20.788c1.978-1.142 2.968-2.64 2.968-4.137v-22.219c0 1.498-.99 2.995-2.968 4.137Z"/><ellipse cx="1042.613" cy="938.284" fill="#4141aa" rx="19.094" ry="11.024" class="color4141aa svgShape"/><ellipse cx="1042.613" cy="938.284" rx="19.094" ry="11.024" style="mix-blend-mode:screen" fill="url(#q)"/><g style="mix-blend-mode:screen" fill="#000000" class="color000 svgShape"><path fill="#12123f" d="m989.336 742.34-3.452-1.992v-15.383l-4.12-.913-.002-3.214 7.204 1.18.372.215ZM989.336 705.34l-3.452-1.991v-15.384l-4.12-.913-.002-3.214 7.204 1.18.372.216ZM991.427 772.231q.003 4.17-1.493 5.51-1.49 1.353-4.373-.318a10.779 10.779 0 0 1-4.345-4.671 16.173 16.173 0 0 1-1.544-7.101v-3.696q.001-4.207 1.51-5.512 1.515-1.308 4.358.335a10.826 10.826 0 0 1 4.347 4.67 16.06 16.06 0 0 1 1.541 7.087Zm-3.45-6.055a10.97 10.97 0 0 0-.595-3.984 4.274 4.274 0 0 0-1.844-2.201c-.812-.47-1.41-.452-1.798.045a5.596 5.596 0 0 0-.616 3.036l.003 4.889a11.471 11.471 0 0 0 .578 3.986 4.252 4.252 0 0 0 1.857 2.264c.845.489 1.453.458 1.828-.086a6.241 6.241 0 0 0 .584-3.174Z" class="color12123f svgShape"/><path fill="#471c0f" d="m797.078 335.342-3.451-1.992v-15.383l-4.121-.913-.002-3.214 7.205 1.18.372.215ZM799.17 291.234q.003 4.17-1.494 5.51-1.49 1.353-4.373-.32a10.782 10.782 0 0 1-4.345-4.67 16.171 16.171 0 0 1-1.544-7.1v-3.697q.002-4.207 1.51-5.512 1.515-1.308 4.359.336a10.826 10.826 0 0 1 4.347 4.67 16.06 16.06 0 0 1 1.54 7.086Zm-3.451-6.055a10.97 10.97 0 0 0-.595-3.985 4.275 4.275 0 0 0-1.844-2.201c-.812-.469-1.409-.452-1.797.046a5.596 5.596 0 0 0-.616 3.035l.002 4.89a11.472 11.472 0 0 0 .579 3.985 4.252 4.252 0 0 0 1.856 2.264c.845.49 1.454.458 1.828-.086a6.242 6.242 0 0 0 .585-3.174Z" class="color471c0f svgShape"/><path fill="#12123f" d="m989.336 483.342-3.452-1.992v-15.383l-4.12-.914-.002-3.213 7.204 1.18.372.215ZM991.427 439.233q.003 4.17-1.493 5.51-1.49 1.353-4.373-.318a10.779 10.779 0 0 1-4.345-4.671 16.17 16.17 0 0 1-1.544-7.101v-3.696q.001-4.207 1.51-5.512 1.515-1.308 4.358.335a10.828 10.828 0 0 1 4.347 4.67 16.062 16.062 0 0 1 1.541 7.087Zm-3.45-6.055a10.968 10.968 0 0 0-.595-3.984 4.274 4.274 0 0 0-1.844-2.201c-.812-.47-1.41-.452-1.798.046a5.595 5.595 0 0 0-.616 3.035l.003 4.889a11.47 11.47 0 0 0 .578 3.986 4.253 4.253 0 0 0 1.857 2.264c.845.489 1.453.458 1.828-.086a6.24 6.24 0 0 0 .584-3.174ZM991.427 550.233q.003 4.17-1.493 5.51-1.49 1.353-4.373-.32a10.781 10.781 0 0 1-4.345-4.67 16.17 16.17 0 0 1-1.544-7.1v-3.696q.001-4.208 1.51-5.513 1.515-1.308 4.358.336a10.826 10.826 0 0 1 4.347 4.67 16.06 16.06 0 0 1 1.541 7.086Zm-3.45-6.055a10.97 10.97 0 0 0-.595-3.985 4.274 4.274 0 0 0-1.844-2.201c-.812-.469-1.41-.452-1.798.046a5.596 5.596 0 0 0-.616 3.035l.003 4.89a11.471 11.471 0 0 0 .578 3.985 4.252 4.252 0 0 0 1.857 2.264c.845.49 1.453.458 1.828-.086a6.241 6.241 0 0 0 .584-3.173ZM991.427 513.233q.003 4.17-1.493 5.51-1.49 1.353-4.373-.319a10.779 10.779 0 0 1-4.345-4.67 16.17 16.17 0 0 1-1.544-7.101v-3.696q.001-4.207 1.51-5.513 1.515-1.308 4.358.336a10.826 10.826 0 0 1 4.347 4.67 16.062 16.062 0 0 1 1.541 7.087Zm-3.45-6.055a10.97 10.97 0 0 0-.595-3.985 4.274 4.274 0 0 0-1.844-2.2c-.812-.47-1.41-.453-1.798.045a5.596 5.596 0 0 0-.616 3.035l.003 4.89a11.471 11.471 0 0 0 .578 3.986 4.252 4.252 0 0 0 1.857 2.264c.845.488 1.453.457 1.828-.087a6.241 6.241 0 0 0 .584-3.173ZM957.293 797.84l-3.452-1.992v-15.383l-4.12-.914-.002-3.214 7.205 1.18.371.216ZM959.384 753.731q.003 4.17-1.493 5.51-1.49 1.353-4.373-.318a10.78 10.78 0 0 1-4.345-4.671 16.17 16.17 0 0 1-1.544-7.101v-3.696q.001-4.207 1.51-5.512 1.515-1.308 4.358.335a10.827 10.827 0 0 1 4.348 4.67 16.063 16.063 0 0 1 1.54 7.087Zm-3.45-6.055a10.965 10.965 0 0 0-.595-3.984 4.274 4.274 0 0 0-1.844-2.201c-.812-.47-1.41-.452-1.798.045a5.592 5.592 0 0 0-.616 3.036l.003 4.889a11.466 11.466 0 0 0 .579 3.986 4.25 4.25 0 0 0 1.856 2.264c.845.489 1.453.458 1.828-.086a6.241 6.241 0 0 0 .584-3.174ZM1021.379 612.84l-3.452-1.99v-15.384l-4.12-.913-.002-3.214 7.204 1.18.372.215ZM1021.379 464.842l-3.452-1.992v-15.383l-4.12-.913-.002-3.214 7.204 1.18.372.215ZM957.293 427.842l-3.452-1.992v-15.383l-4.12-.913-.002-3.214 7.205 1.18.371.215ZM957.293 390.842l-3.452-1.992v-15.383l-4.12-.913-.002-3.214 7.205 1.18.371.215ZM1023.47 420.734q.003 4.17-1.493 5.51-1.49 1.353-4.373-.32a10.782 10.782 0 0 1-4.346-4.67 16.171 16.171 0 0 1-1.543-7.1v-3.697q.001-4.207 1.51-5.512 1.515-1.308 4.358.336a10.826 10.826 0 0 1 4.347 4.67 16.06 16.06 0 0 1 1.541 7.086Zm-3.45-6.055a10.965 10.965 0 0 0-.595-3.985 4.275 4.275 0 0 0-1.844-2.201c-.812-.469-1.41-.452-1.798.046a5.596 5.596 0 0 0-.616 3.035l.003 4.89a11.463 11.463 0 0 0 .578 3.985 4.252 4.252 0 0 0 1.857 2.264c.845.49 1.453.458 1.828-.086a6.242 6.242 0 0 0 .584-3.174ZM829.12 390.842l-3.45-1.992v-15.383l-4.121-.914-.002-3.213 7.205 1.18.372.215ZM829.12 353.842l-3.45-1.992v-15.383l-4.121-.913-.002-3.214 7.205 1.18.372.215ZM831.212 309.734q.004 4.17-1.493 5.51-1.49 1.353-4.373-.32a10.782 10.782 0 0 1-4.345-4.67 16.169 16.169 0 0 1-1.544-7.1v-3.697q.002-4.207 1.51-5.512 1.515-1.308 4.359.336a10.826 10.826 0 0 1 4.347 4.67 16.06 16.06 0 0 1 1.54 7.086Zm-3.45-6.055a10.965 10.965 0 0 0-.595-3.985 4.275 4.275 0 0 0-1.844-2.201c-.812-.469-1.409-.452-1.797.046a5.594 5.594 0 0 0-.616 3.035l.002 4.89a11.467 11.467 0 0 0 .579 3.985 4.251 4.251 0 0 0 1.856 2.264c.845.49 1.453.458 1.828-.086a6.241 6.241 0 0 0 .585-3.174ZM831.212 420.733q.004 4.17-1.493 5.51-1.49 1.353-4.373-.319a10.78 10.78 0 0 1-4.345-4.67 16.17 16.17 0 0 1-1.544-7.101v-3.696q.002-4.207 1.51-5.513 1.515-1.308 4.359.336a10.826 10.826 0 0 1 4.347 4.67 16.062 16.062 0 0 1 1.54 7.087Zm-3.45-6.055a10.965 10.965 0 0 0-.595-3.985 4.273 4.273 0 0 0-1.844-2.2c-.812-.47-1.409-.453-1.797.045a5.595 5.595 0 0 0-.616 3.035l.002 4.89a11.466 11.466 0 0 0 .579 3.986 4.251 4.251 0 0 0 1.856 2.264c.845.488 1.453.458 1.828-.087a6.24 6.24 0 0 0 .585-3.173Z" class="color12123f svgShape"/><path fill="#471c0f" d="m957.293 612.84-3.452-1.991v-15.383l-4.12-.914-.002-3.213 7.205 1.18.371.215ZM957.293 575.84l-3.452-1.99v-15.384l-4.12-.913-.002-3.214 7.205 1.18.371.215Z" class="color471c0f svgShape"/><path fill="#12123f" d="m765.035 235.093-3.451-1.992v-15.383l-4.12-.913-.003-3.214 7.205 1.18.372.215Z" class="color12123f svgShape"/><path fill="#471c0f" d="m732.992 261.342-3.451-1.992v-15.383l-4.12-.913-.003-3.214 7.205 1.18.372.215ZM959.384 642.732q.003 4.17-1.493 5.51-1.49 1.353-4.373-.319a10.78 10.78 0 0 1-4.345-4.67 16.17 16.17 0 0 1-1.544-7.101v-3.696q.001-4.207 1.51-5.512 1.515-1.309 4.358.335a10.827 10.827 0 0 1 4.348 4.67 16.065 16.065 0 0 1 1.54 7.087Zm-3.45-6.055a10.964 10.964 0 0 0-.595-3.985 4.274 4.274 0 0 0-1.844-2.2c-.812-.47-1.41-.453-1.798.045a5.591 5.591 0 0 0-.616 3.035l.003 4.89a11.465 11.465 0 0 0 .579 3.986 4.252 4.252 0 0 0 1.856 2.264c.845.489 1.453.458 1.828-.087a6.241 6.241 0 0 0 .584-3.173Z" class="color471c0f svgShape"/><path fill="#12123f" d="m1021.379 834.84-3.452-1.992v-15.383l-4.12-.914-.002-3.214 7.204 1.18.372.216ZM1023.47 790.731q.003 4.17-1.493 5.51-1.49 1.353-4.373-.318a10.783 10.783 0 0 1-4.346-4.671 16.173 16.173 0 0 1-1.543-7.101v-3.696q.001-4.207 1.51-5.512 1.515-1.308 4.358.335a10.826 10.826 0 0 1 4.347 4.67 16.06 16.06 0 0 1 1.541 7.087Zm-3.45-6.055a10.965 10.965 0 0 0-.595-3.984 4.274 4.274 0 0 0-1.844-2.201c-.812-.47-1.41-.452-1.798.045a5.596 5.596 0 0 0-.616 3.036l.002 4.889a11.466 11.466 0 0 0 .58 3.986 4.251 4.251 0 0 0 1.856 2.264c.845.489 1.453.458 1.828-.086a6.241 6.241 0 0 0 .584-3.174ZM1021.379 686.84l-3.452-1.991v-15.383l-4.12-.914-.002-3.214 7.204 1.18.372.216ZM1023.47 642.732q.003 4.17-1.493 5.51-1.49 1.353-4.373-.318a10.782 10.782 0 0 1-4.346-4.671 16.171 16.171 0 0 1-1.543-7.101v-3.696q.001-4.207 1.51-5.512 1.515-1.309 4.358.335a10.826 10.826 0 0 1 4.347 4.67 16.062 16.062 0 0 1 1.541 7.087Zm-3.45-6.055a10.964 10.964 0 0 0-.595-3.984 4.275 4.275 0 0 0-1.844-2.202c-.812-.468-1.41-.451-1.798.046a5.596 5.596 0 0 0-.616 3.036l.003 4.889a11.46 11.46 0 0 0 .578 3.986 4.25 4.25 0 0 0 1.857 2.264c.845.489 1.453.458 1.828-.086a6.242 6.242 0 0 0 .584-3.174ZM1023.47 753.732q.003 4.17-1.493 5.51-1.49 1.353-4.373-.32a10.78 10.78 0 0 1-4.346-4.67 16.172 16.172 0 0 1-1.543-7.1v-3.697q.001-4.207 1.51-5.512 1.515-1.308 4.358.336a10.826 10.826 0 0 1 4.347 4.67 16.061 16.061 0 0 1 1.541 7.086Zm-3.45-6.056a10.965 10.965 0 0 0-.595-3.984 4.274 4.274 0 0 0-1.844-2.201c-.812-.47-1.41-.452-1.798.046a5.596 5.596 0 0 0-.616 3.035l.002 4.889a11.466 11.466 0 0 0 .58 3.986 4.251 4.251 0 0 0 1.856 2.264c.845.489 1.453.458 1.828-.086a6.241 6.241 0 0 0 .584-3.174ZM1023.47 716.732q.003 4.17-1.493 5.51-1.49 1.353-4.373-.32a10.78 10.78 0 0 1-4.346-4.67 16.172 16.172 0 0 1-1.543-7.1v-3.696q.001-4.208 1.51-5.513 1.515-1.308 4.358.336a10.827 10.827 0 0 1 4.347 4.67 16.062 16.062 0 0 1 1.541 7.086Zm-3.45-6.055a10.965 10.965 0 0 0-.595-3.985 4.274 4.274 0 0 0-1.844-2.201c-.812-.469-1.41-.452-1.798.046a5.595 5.595 0 0 0-.616 3.035l.002 4.89a11.465 11.465 0 0 0 .58 3.985 4.252 4.252 0 0 0 1.856 2.265c.845.488 1.453.457 1.828-.087a6.24 6.24 0 0 0 .584-3.173ZM572.777 575.84l-3.451-1.992v-15.383l-4.12-.914-.002-3.214 7.204 1.18.372.216ZM572.777 501.84l-3.451-1.992v-15.383l-4.12-.913-.002-3.214 7.204 1.18.372.215ZM572.777 464.84l-3.451-1.991v-15.384l-4.12-.913-.002-3.214 7.204 1.18.372.216ZM574.869 420.732q.003 4.17-1.493 5.51-1.491 1.353-4.373-.319a10.779 10.779 0 0 1-4.346-4.67 16.17 16.17 0 0 1-1.543-7.101v-3.696q0-4.207 1.51-5.512 1.515-1.309 4.358.335a10.826 10.826 0 0 1 4.347 4.67 16.062 16.062 0 0 1 1.541 7.087Zm-3.45-6.055a10.97 10.97 0 0 0-.595-3.985 4.274 4.274 0 0 0-1.844-2.2c-.812-.47-1.41-.453-1.798.045a5.595 5.595 0 0 0-.616 3.035l.002 4.89a11.47 11.47 0 0 0 .58 3.986 4.253 4.253 0 0 0 1.856 2.264c.844.489 1.453.458 1.828-.087a6.242 6.242 0 0 0 .584-3.173ZM574.869 531.731q.003 4.17-1.493 5.51-1.491 1.353-4.373-.318a10.779 10.779 0 0 1-4.346-4.671 16.17 16.17 0 0 1-1.543-7.101v-3.696q0-4.207 1.51-5.512 1.515-1.308 4.358.335a10.826 10.826 0 0 1 4.347 4.67 16.06 16.06 0 0 1 1.541 7.087Zm-3.45-6.055a10.97 10.97 0 0 0-.595-3.984 4.275 4.275 0 0 0-1.844-2.201c-.812-.47-1.41-.452-1.798.045a5.596 5.596 0 0 0-.616 3.036l.002 4.889a11.471 11.471 0 0 0 .58 3.986 4.252 4.252 0 0 0 1.856 2.264c.844.489 1.453.458 1.828-.086a6.241 6.241 0 0 0 .584-3.174Z" class="color12123f svgShape"/><path fill="#471c0f" d="M574.869 198.733q.003 4.17-1.493 5.51-1.491 1.353-4.373-.318a10.779 10.779 0 0 1-4.346-4.671 16.17 16.17 0 0 1-1.543-7.101v-3.696q0-4.207 1.51-5.512 1.515-1.308 4.358.335a10.828 10.828 0 0 1 4.347 4.67 16.062 16.062 0 0 1 1.541 7.087Zm-3.45-6.055a10.973 10.973 0 0 0-.595-3.984 4.274 4.274 0 0 0-1.844-2.201c-.812-.47-1.41-.452-1.798.046a5.595 5.595 0 0 0-.616 3.035l.002 4.889a11.47 11.47 0 0 0 .58 3.986 4.253 4.253 0 0 0 1.856 2.264c.844.489 1.453.458 1.828-.086a6.24 6.24 0 0 0 .584-3.174ZM540.734 557.34l-3.451-1.992v-15.383l-4.12-.914-.002-3.214 7.204 1.18.372.216ZM542.826 513.231q.003 4.17-1.493 5.51-1.49 1.353-4.373-.318a10.779 10.779 0 0 1-4.346-4.671 16.17 16.17 0 0 1-1.543-7.101v-3.696q0-4.207 1.51-5.512 1.515-1.308 4.358.335a10.825 10.825 0 0 1 4.347 4.67 16.06 16.06 0 0 1 1.541 7.087Zm-3.45-6.055a10.964 10.964 0 0 0-.595-3.984 4.275 4.275 0 0 0-1.844-2.201c-.812-.47-1.41-.452-1.798.045a5.594 5.594 0 0 0-.616 3.036l.002 4.889a11.471 11.471 0 0 0 .58 3.986 4.252 4.252 0 0 0 1.856 2.264c.845.489 1.453.458 1.828-.086a6.24 6.24 0 0 0 .584-3.174ZM542.826 476.232q.003 4.17-1.493 5.51-1.49 1.353-4.373-.32a10.779 10.779 0 0 1-4.346-4.67 16.17 16.17 0 0 1-1.543-7.1v-3.697q0-4.207 1.51-5.512 1.515-1.308 4.358.336a10.825 10.825 0 0 1 4.347 4.67 16.062 16.062 0 0 1 1.541 7.086Zm-3.45-6.056a10.964 10.964 0 0 0-.595-3.984 4.275 4.275 0 0 0-1.844-2.201c-.812-.47-1.41-.452-1.798.046a5.594 5.594 0 0 0-.616 3.035l.002 4.889a11.471 11.471 0 0 0 .58 3.986 4.252 4.252 0 0 0 1.856 2.264c.845.489 1.453.458 1.828-.086a6.239 6.239 0 0 0 .584-3.174Z" class="color471c0f svgShape"/><path fill="#12123f" d="m604.82 335.341-3.451-1.991v-15.384l-4.12-.913-.002-3.214 7.204 1.18.372.215ZM604.82 372.34l-3.451-1.99v-15.384l-4.12-.913-.002-3.214 7.204 1.18.372.215ZM604.82 261.342l-3.451-1.992v-15.383l-4.12-.914-.002-3.213 7.204 1.18.372.215ZM604.82 224.342l-3.451-1.992v-15.383l-4.12-.913-.002-3.214 7.204 1.18.372.215ZM540.734 187.342l-3.451-1.992v-15.383l-4.12-.913-.002-3.214 7.204 1.18.372.215ZM540.734 150.342l-3.451-1.992v-15.383l-4.12-.913-.002-3.214 7.204 1.18.372.215ZM606.912 180.234q.003 4.17-1.493 5.51-1.491 1.353-4.373-.32a10.782 10.782 0 0 1-4.346-4.67 16.169 16.169 0 0 1-1.543-7.1v-3.697q0-4.207 1.51-5.512 1.514-1.308 4.358.336a10.826 10.826 0 0 1 4.347 4.67 16.06 16.06 0 0 1 1.541 7.086Zm-3.45-6.055a10.965 10.965 0 0 0-.596-3.985 4.275 4.275 0 0 0-1.843-2.201c-.812-.469-1.41-.452-1.798.046a5.594 5.594 0 0 0-.616 3.035l.002 4.89a11.467 11.467 0 0 0 .58 3.985 4.251 4.251 0 0 0 1.856 2.264c.844.49 1.453.458 1.827-.086a6.241 6.241 0 0 0 .585-3.174ZM542.826 217.233q.003 4.17-1.493 5.51-1.49 1.353-4.373-.319a10.779 10.779 0 0 1-4.346-4.67 16.17 16.17 0 0 1-1.543-7.101v-3.696q0-4.207 1.51-5.512 1.515-1.308 4.358.335a10.826 10.826 0 0 1 4.347 4.67 16.062 16.062 0 0 1 1.541 7.087Zm-3.45-6.055a10.963 10.963 0 0 0-.595-3.984 4.274 4.274 0 0 0-1.844-2.202c-.812-.468-1.41-.452-1.798.046a5.593 5.593 0 0 0-.616 3.036l.002 4.889a11.47 11.47 0 0 0 .58 3.986 4.253 4.253 0 0 0 1.856 2.264c.845.489 1.453.458 1.828-.087a6.238 6.238 0 0 0 .584-3.173ZM606.912 291.233q.003 4.17-1.493 5.51-1.491 1.353-4.373-.319a10.78 10.78 0 0 1-4.346-4.67 16.17 16.17 0 0 1-1.543-7.101v-3.696q0-4.207 1.51-5.513 1.514-1.308 4.358.336a10.826 10.826 0 0 1 4.347 4.67 16.062 16.062 0 0 1 1.541 7.087Zm-3.45-6.055a10.965 10.965 0 0 0-.596-3.985 4.274 4.274 0 0 0-1.843-2.2c-.812-.47-1.41-.453-1.798.045a5.595 5.595 0 0 0-.616 3.035l.002 4.89a11.466 11.466 0 0 0 .58 3.986 4.251 4.251 0 0 0 1.856 2.264c.844.488 1.453.458 1.827-.087a6.24 6.24 0 0 0 .585-3.173ZM540.734 261.341l-3.451-1.991v-15.383l-4.12-.914-.002-3.214 7.204 1.18.372.216ZM604.82 446.34l-3.451-1.991v-15.383l-4.12-.914-.002-3.214 7.204 1.18.372.216ZM606.912 402.232q.003 4.17-1.493 5.51-1.491 1.353-4.373-.318a10.782 10.782 0 0 1-4.346-4.671 16.169 16.169 0 0 1-1.543-7.101v-3.696q0-4.207 1.51-5.512 1.514-1.309 4.358.335a10.826 10.826 0 0 1 4.347 4.67 16.062 16.062 0 0 1 1.541 7.087Zm-3.45-6.055a10.964 10.964 0 0 0-.596-3.984 4.275 4.275 0 0 0-1.843-2.202c-.812-.468-1.41-.451-1.798.046a5.594 5.594 0 0 0-.616 3.036l.002 4.889a11.465 11.465 0 0 0 .58 3.986 4.25 4.25 0 0 0 1.856 2.264c.844.489 1.453.458 1.827-.086a6.241 6.241 0 0 0 .585-3.174ZM636.863 316.841l-3.451-1.991v-15.383l-4.12-.914-.002-3.214 7.204 1.18.372.216ZM638.955 198.734q.003 4.17-1.493 5.51-1.491 1.353-4.374-.32a10.782 10.782 0 0 1-4.345-4.67 16.169 16.169 0 0 1-1.543-7.1v-3.697q0-4.207 1.51-5.512 1.514-1.308 4.358.336a10.827 10.827 0 0 1 4.347 4.67 16.063 16.063 0 0 1 1.541 7.086Zm-3.45-6.055a10.965 10.965 0 0 0-.596-3.985 4.275 4.275 0 0 0-1.843-2.201c-.813-.469-1.41-.452-1.798.046a5.592 5.592 0 0 0-.616 3.035l.002 4.89a11.467 11.467 0 0 0 .58 3.985 4.25 4.25 0 0 0 1.856 2.264c.844.49 1.453.458 1.827-.086a6.241 6.241 0 0 0 .585-3.174Z" class="color12123f svgShape"/><path fill="#471c0f" d="m893.207 464.841-3.452-1.991.001-15.383-4.121-.914-.002-3.214 7.205 1.18.371.216ZM893.207 390.842l-3.452-1.992.001-15.383-4.121-.913-.002-3.214 7.205 1.18.371.215ZM893.207 353.842l-3.452-1.992.001-15.383-4.121-.913-.002-3.214 7.205 1.18.371.215ZM895.298 420.733q.003 4.17-1.493 5.51-1.49 1.353-4.373-.319a10.779 10.779 0 0 1-4.345-4.67 16.17 16.17 0 0 1-1.544-7.101v-3.696q.001-4.207 1.51-5.512 1.515-1.309 4.358.335a10.828 10.828 0 0 1 4.348 4.67 16.062 16.062 0 0 1 1.54 7.087Zm-3.45-6.055a10.972 10.972 0 0 0-.595-3.984 4.274 4.274 0 0 0-1.844-2.202c-.812-.468-1.41-.452-1.798.046a5.595 5.595 0 0 0-.616 3.036l.003 4.889a11.47 11.47 0 0 0 .579 3.986 4.253 4.253 0 0 0 1.856 2.264c.845.489 1.453.458 1.828-.087a6.24 6.24 0 0 0 .584-3.173Z" class="color471c0f svgShape"/><path fill="#12123f" d="m925.25 483.341-3.452-1.991.001-15.383-4.121-.914-.002-3.214 7.205 1.18.371.216Z" class="color12123f svgShape"/></g><path fill="#423eaf" d="M934.613 735.372c0 5.87-4.16 8.27-9.244 5.336L614.885 561.451c-5.086-2.936-9.243-10.139-9.243-16.01V311.256c0-5.87 4.157-8.27 9.243-5.336l310.484 179.258c5.083 2.935 9.244 10.14 9.244 16.009Z" class="color423eaf svgShape"/><path fill="url(#r)" d="M932.347 481.15 621.86 301.89c-2.576-1.485-4.908-1.598-6.59-.591v-.005l-6.64 3.85.018.004c1.646-.798 3.834-.615 6.236.77l310.484 179.259c5.083 2.935 9.244 10.14 9.244 16.009v234.186c0 2.913-1.028 4.97-2.68 5.947v.003l6.635-3.852-.018-.003c1.859-.88 3.04-3.006 3.04-6.123V497.158c0-5.87-4.162-13.074-9.243-16.009Z"/><path fill="url(#s)" d="M925.369 726.361 614.885 547.103V316.591L925.369 495.85v230.511z"/><path fill="#7f7ff4" d="M714.827 866.321c-5.082 2.936-13.402 2.936-18.485 0L385.856 687.063c-5.082-2.934-5.082-7.736 0-10.673l211.63-122.184c5.082-2.934 13.402-2.934 18.486 0l310.486 179.26c5.083 2.934 5.083 7.734 0 10.67Z" class="color7f7ff4 svgShape"/><path fill="#6a6ae2" d="m616.297 579.628-15.183-8.767 7.591-4.382 15.184 8.765-7.592 4.384zM641.87 594.395l-15.185-8.769 7.591-4.384 15.186 8.767-7.592 4.386zM667.443 609.157l-15.183-8.767 7.592-4.384 15.185 8.77-7.594 4.381zM693.014 623.923l-15.181-8.765 7.594-4.385 15.181 8.767-7.594 4.383zM718.59 638.687l-15.184-8.767 7.594-4.381 15.184 8.767-7.594 4.381zM744.165 653.454l-15.183-8.767 7.589-4.384 15.188 8.765-7.594 4.386zM769.738 668.22l-15.181-8.767 7.592-4.386 15.181 8.767-7.592 4.386zM795.314 682.982l-15.186-8.765 7.594-4.386 15.183 8.77-7.591 4.381zM820.887 697.748l-15.184-8.764 7.592-4.386 15.186 8.767-7.594 4.383zM846.46 712.512l-15.183-8.767 7.594-4.381 15.183 8.765-7.594 4.383zM872.035 727.279l-15.183-8.767 7.592-4.384 15.185 8.767-7.594 4.384zM897.611 742.045l-15.188-8.769 7.594-4.384 15.185 8.77-7.591 4.383zM602.837 601.387l-27.299-15.761 15.184-8.767 27.299 15.763-15.184 8.765zM588.715 621.537l-37.689-21.761 15.188-8.765 37.686 21.761-15.185 8.765zM573.529 642.301l-48.076-27.758 15.183-8.765 48.074 27.758-15.181 8.765zM521.805 648.171l-27.299-15.759 20.557-11.87 27.299 15.759-20.557 11.87zM559.494 669.932l-27.3-15.762 20.556-11.869 27.301 15.761-20.557 11.87zM597.182 691.691l-27.299-15.76 20.558-11.869 27.299 15.761-20.558 11.868zM727.13 766.719l-27.297-15.766 20.555-11.865 27.303 15.761-20.561 11.87zM791.003 803.595l-53.544-30.916 20.557-11.868 53.544 30.915-20.557 11.869zM689.504 744.994l-81.929-47.304 20.554-11.868 81.935 47.304-20.56 11.868zM635.569 620.284l-22.342-12.897 15.181-8.767 22.344 12.897-15.183 8.767zM621.446 640.434l-22.343-12.897 15.185-8.77 22.342 12.898-15.184 8.769zM606.961 660.795l-22.342-12.898 15.186-8.767 22.342 12.9-15.186 8.765zM639.693 679.69l-22.342-12.898 15.183-8.767 22.342 12.9-15.183 8.765zM672.419 698.587l-22.339-12.898 15.183-8.765 22.342 12.898-15.186 8.765zM705.153 717.486l-22.341-12.898 15.183-8.769 22.339 12.9-15.181 8.767zM737.882 736.383l-22.339-12.9 15.183-8.767 22.34 12.9-15.184 8.767zM770.612 755.278l-22.34-12.898 15.184-8.769 22.341 12.9-15.185 8.767zM822.65 785.324l-41.648-24.049 15.183-8.765 41.648 24.046-15.183 8.768zM654.178 659.329l-22.342-12.895 15.186-8.768 22.339 12.898-15.183 8.765zM686.907 678.228l-22.342-12.9 15.186-8.767 22.342 12.9-15.186 8.767zM719.634 697.126l-22.339-12.898 15.185-8.77 22.342 12.9-15.188 8.768zM752.368 716.023l-22.342-12.898 15.186-8.77 22.339 12.898-15.183 8.77zM785.099 734.92l-22.344-12.9 15.188-8.768 22.342 12.901-15.186 8.767zM847.523 770.962l-52.036-30.045 15.185-8.767 52.039 30.043-15.188 8.769zM668.298 639.181l-22.342-12.897 15.186-8.767 22.339 12.9-15.183 8.764zM701.03 658.076l-22.342-12.898 15.183-8.764 22.342 12.895-15.183 8.767zM733.757 676.973l-22.337-12.898 15.18-8.762 22.342 12.896-15.185 8.764zM766.488 695.873l-22.342-12.9 15.183-8.767 22.342 12.9-15.183 8.767zM799.219 714.768l-22.341-12.898 15.183-8.765 22.344 12.896-15.186 8.767zM831.949 733.665l-22.34-12.898 15.184-8.765 22.341 12.898-15.185 8.765zM872.035 756.807l-29.694-17.143 15.183-8.767 29.695 17.145-15.184 8.765z" class="color6a6ae2 svgShape"/><path fill="#6b67e9" d="M886.521 718.917 641.17 577.261l7.372-4.253L893.89 714.662l-7.369 4.255z" class="color6b67e9 svgShape"/><path fill="#6a6ae2" d="m689.499 763.298-125.198-72.287-77.799 44.918 125.199 72.284 77.798-44.915z" class="color6a6ae2 svgShape"/><path fill="url(#t)" d="M926.458 744.136 714.827 866.321c-4.037 2.332-10.107 2.805-14.987 1.433-.035-.01-3.032-1.164-3.498-1.433L385.856 687.063a10.776 10.776 0 0 1-.981-.641l-.047-.035c-.082-.061-.152-.124-.23-.185a7.753 7.753 0 0 1-.512-.431c-.083-.073-.16-.15-.237-.225a7.086 7.086 0 0 1-.532-.58l-.063-.073c-.012-.017-.026-.033-.037-.047a6.576 6.576 0 0 1-.48-.714 4.794 4.794 0 0 1-.677-2.22h-.016v4.475h.035c-.028 1.953 1.213 3.908 3.777 5.39l310.486 179.258c7.409 3.674 17.993 2.957 21.145 2.269 3.15-.69 5.98-1.48 9.284-2.201l199.687-115.286c2.57-1.488 3.837-3.447 3.805-5.405v-11.554c-.022 1.913-1.29 3.824-3.805 5.278Z"/><path style="mix-blend-mode:multiply" fill="url(#u)" d="m441.872 674.557-53.187.2 84.176-48.599 53.186-.199-84.175 48.598z"/><path style="mix-blend-mode:screen" fill="url(#c)" d="m773.341 872.066-27.569-15.917 15.106-12.612 27.415 15.917-14.952 12.612z"/><path fill="#34318f" d="m757.509 845.482-11.737 6.777v3.89l15.106-8.721v-3.891l-3.369 1.945z" class="color34318f svgShape"/><path d="m757.509 845.482 3.369 1.946v-3.891l-3.369 1.945z" style="mix-blend-mode:screen" fill="#471c0f" class="color471c0f svgShape"/><path style="mix-blend-mode:screen" fill="url(#d)" d="M745.772 852.259v3.89l15.106-8.721-3.369-1.946-11.737 6.777z"/><path style="mix-blend-mode:screen" fill="url(#v)" d="m803.553 854.623-27.568-15.917 15.106-12.612 27.415 15.917-14.953 12.612z"/><path fill="#34318f" d="m787.722 828.039-11.737 6.777v3.89l15.106-8.722v-3.89l-3.369 1.945z" class="color34318f svgShape"/><path d="m787.722 828.039 3.369 1.945v-3.89l-3.369 1.945z" style="mix-blend-mode:screen" fill="#471c0f" class="color471c0f svgShape"/><path style="mix-blend-mode:screen" fill="url(#w)" d="M775.985 834.816v3.89l15.106-8.722-3.369-1.945-11.737 6.777z"/><g style="mix-blend-mode:screen" fill="#000000" class="color000 svgShape"><path fill="#1e1c6b" d="m666.282 370.702-36.269-20.94v-5.043l36.269 20.94v5.043zM775.11 433.546l-97.522-56.317v-5.043l97.522 56.317v5.043z" class="color1e1c6b svgShape"/><path fill="#34318f" d="m644.066 371.609-14.053-8.113v-5.044l14.053 8.114v5.043zM775.11 447.28l-119.738-69.143v-5.044l119.738 69.144v5.043zM676.377 403.998l-46.364-26.769v-5.043l46.364 26.769v5.043zM775.11 461.014l-87.427-50.489v-5.043l87.427 50.488v5.044z" class="color34318f svgShape"/><path fill="#471c0f" d="m666.282 329.501-36.269-20.94v-5.043l36.269 20.94v5.043z" class="color471c0f svgShape"/><path fill="#12123f" d="m775.11 392.345-97.522-56.317v-5.043l97.522 56.317v5.043z" class="color12123f svgShape"/><path fill="#9b4c2d" d="m644.066 330.408-14.053-8.113v-5.044l14.053 8.114v5.043z" class="color9b4c2d svgShape"/><path fill="#1e1c6b" d="m775.11 406.079-119.738-69.143v-5.044l119.738 69.144v5.043z" class="color1e1c6b svgShape"/><path fill="#9b4c2d" d="m676.377 362.797-46.364-26.769v-5.043l46.364 26.769v5.043z" class="color9b4c2d svgShape"/><path fill="#1e1c6b" d="m775.11 419.813-87.427-50.489v-5.043l87.427 50.488v5.044z" class="color1e1c6b svgShape"/><path fill="#12123f" d="m666.282 288.3-36.269-20.94v-5.043l36.269 20.94v5.043z" class="color12123f svgShape"/><path fill="#471c0f" d="m775.11 351.144-97.522-56.317v-5.043l97.522 56.317v5.043zM644.066 289.207l-14.053-8.113v-5.044l14.053 8.114v5.043z" class="color471c0f svgShape"/><path fill="#12123f" d="m775.11 364.878-119.738-69.143v-5.044l119.738 69.144v5.043zM676.377 321.596l-46.364-26.769v-5.043l46.364 26.769v5.043zM775.11 378.612l-87.427-50.489v-5.043l87.427 50.488v5.044z" class="color12123f svgShape"/><path fill="#471c0f" d="m666.282 247.099-36.269-20.94v-5.043l36.269 20.94v5.043z" class="color471c0f svgShape"/><path fill="#12123f" d="m775.11 309.943-97.522-56.317v-5.043L775.11 304.9v5.043z" class="color12123f svgShape"/><path fill="#471c0f" d="m644.066 248.006-14.053-8.113v-5.044l14.053 8.114v5.043z" class="color471c0f svgShape"/><path fill="#12123f" d="m775.11 323.677-119.738-69.143v-5.044l119.738 69.144v5.043zM676.377 280.395l-46.364-26.769v-5.043l46.364 26.769v5.043zM775.11 337.411l-87.427-50.489v-5.043l87.427 50.488v5.044z" class="color12123f svgShape"/><path fill="#34318f" d="m651.207 403.199-21.194-12.236v-5.043l21.194 12.236v5.043z" class="color34318f svgShape"/><path fill="#ba6038" d="m775.11 474.747-112.597-65.02v-5.043l112.597 65.02v5.043z" class="colorba6038 svgShape"/><path fill="#4141aa" d="m645.202 413.466-15.189-8.769v-5.043l15.189 8.769v5.043zM775.11 488.481l-118.602-68.487v-5.044l118.602 68.488v5.043zM651.207 430.667l-21.194-12.236v-5.044l21.194 12.236v5.044zM768.792 498.567l-112.597-65.021v-5.043l112.597 65.021v5.043z" class="color4141aa svgShape"/><path fill="#ba6038" d="m651.207 444.4-21.194-12.236v-5.043l21.194 12.236v5.043z" class="colorba6038 svgShape"/><path fill="#4141aa" d="m775.11 515.949-112.597-65.021v-5.043l112.597 65.02v5.044z" class="color4141aa svgShape"/><path fill="#5555c6" d="m658.063 462.093-21.193-12.237v-5.043l21.193 12.236v5.044z" class="color5555c6 svgShape"/><path fill="#d67747" d="m775.11 529.682-112.597-65.02v-5.044l112.597 65.021v5.043z" class="colord67747 svgShape"/><path fill="#5555c6" d="m643.726 467.549-13.713-7.918v-5.043l13.713 7.917v5.044zM767.825 539.21l-120.078-69.34v-5.043l120.078 69.34v5.043zM651.207 485.601l-21.194-12.236v-5.043l21.194 12.236v5.043zM713.914 521.818l-51.401-29.689v-5.043l51.401 29.689v5.043z" class="color5555c6 svgShape"/><path fill="#ed995a" d="m651.207 499.335-21.194-12.236v-5.043l21.194 12.236v5.043z" class="colored995a svgShape"/><path fill="#6a6ae2" d="m775.11 570.883-112.597-65.02v-5.044L775.11 565.84v5.043zM645.202 509.472l-15.189-8.639v-5.044l15.189 8.64v5.043zM750.2 570.215 656.508 516v-5.044l93.692 54.216v5.043zM651.207 526.802l-21.194-12.236v-5.043l21.194 12.236v5.043z" class="color6a6ae2 svgShape"/><path fill="#ed995a" d="m775.11 598.35-112.597-65.02v-5.043l112.597 65.02v5.043z" class="colored995a svgShape"/><path fill="#6a6ae2" d="M651.207 540.536 630.013 528.3v-5.043l21.194 12.236v5.043zM758.72 602.621l-96.207-55.557v-5.044l96.207 55.558v5.043z" class="color6a6ae2 svgShape"/><path fill="#ed995a" d="m666.282 562.949-36.269-20.915v-5.044l36.269 20.916v5.043z" class="colored995a svgShape"/><path fill="#6a6ae2" d="m722.802 595.618-45.214-26.141v-5.044l45.214 26.142v5.043z" class="color6a6ae2 svgShape"/></g><path d="m899.256 692.877-104.243-60.184c-3.423-1.976-6.197-7.277-6.197-11.84v-82.609c0-4.563 2.774-6.66 6.197-4.684l104.243 60.184c3.422 1.976 6.196 7.277 6.196 11.84v82.609c0 4.563-2.774 6.66-6.196 4.684Z" style="mix-blend-mode:screen" fill="#34318f" class="color34318f svgShape"/><path d="M797.67 555.93c0-6.375 4.475-8.96 9.996-5.771 5.521 3.187 9.997 10.94 9.997 17.315s-4.476 8.959-9.997 5.771c-5.52-3.187-9.997-10.94-9.997-17.315Z" style="mix-blend-mode:screen" fill="#f7c479" class="colorf7c479 svgShape"/><path d="m832.79 585.358-32.844 50.183 74.383 42.945-32.845-88.109c-1.882-5.048-6.811-7.894-8.693-5.019Z" style="mix-blend-mode:screen" fill="#ba6038" class="colorba6038 svgShape"/><path d="m896.468 691.268-19.198-51.5c-1.882-5.049-6.811-7.895-8.693-5.02l-19.198 29.333Z" style="mix-blend-mode:screen" fill="#ba6038" class="colorba6038 svgShape"/><path d="m899.256 547.208-104.243-60.185c-3.423-1.976-6.197-7.277-6.197-11.84v-82.609c0-4.563 2.774-6.66 6.197-4.684l104.243 60.184c3.422 1.976 6.196 7.277 6.196 11.84v82.609c0 4.563-2.774 6.66-6.196 4.685Z" style="mix-blend-mode:screen" fill="#12123f" class="color12123f svgShape"/><path d="M797.67 410.26c0-6.375 4.475-8.959 9.996-5.771 5.521 3.188 9.997 10.94 9.997 17.315s-4.476 8.96-9.997 5.772c-5.52-3.188-9.997-10.94-9.997-17.315Z" style="mix-blend-mode:screen" fill="#ba6038" class="colorba6038 svgShape"/><path d="m832.79 439.688-32.844 50.183 74.383 42.945-32.845-88.109c-1.882-5.048-6.811-7.894-8.693-5.019Z" style="mix-blend-mode:screen" fill="#471c0f" class="color471c0f svgShape"/><path d="m896.468 545.598-19.198-51.5c-1.882-5.048-6.811-7.894-8.693-5.019l-19.198 29.332Z" style="mix-blend-mode:screen" fill="#471c0f" class="color471c0f svgShape"/><path style="mix-blend-mode:multiply" fill="url(#e)" d="M527.695 1074.704H675.1v27.087H527.695z"/><path style="mix-blend-mode:multiply" fill="url(#x)" d="M461.233 1035.582h147.405v27.087H461.233z"/><path fill="url(#f)" d="M444.922 1054.337c0-21.287 13.489-21.899 13.489-21.899s7.304 0 19.169-4.927c11.705-4.864 28.209-2.98 18.985 14.028a4.433 4.433 0 0 1-.316.628 8.267 8.267 0 0 1-2.992 2.62l-29.47 17.29c-4.492 2.57-18.758-3.362-18.865-7.74Z"/><path fill="#1e1c6b" d="M445 1052.428c.257 4.372 14.331 10.183 18.787 7.641l29.47-17.285a27.557 27.557 0 0 0 4.158-3.029c-.275.586-.51 1.146-.85 1.784a4.433 4.433 0 0 1-.316.628 8.267 8.267 0 0 1-2.992 2.62l-29.47 17.29c-4.204 2.402-16.99-2.645-18.676-6.897a4.415 4.415 0 0 1-.131-.864 14.116 14.116 0 0 1 .02-1.888Z" class="color1e1c6b svgShape"/><path fill="#7f7ff4" d="M450.406 1029.64c3.473 0 15.698 3.107 15.698 3.107a6.88 6.88 0 0 0 1.09 3.164c.124.136.231.272.34.414 2.417 1.678 4.87 4.33-.854 7.923-4.684 2.945-8.494 1.078-10.304-.732a9.383 9.383 0 0 0-3.32-3.77 8.489 8.489 0 0 0-3.191-1.345 1.61 1.61 0 0 0-.029-.293s-.886-8.468.57-8.468Z" class="color7f7ff4 svgShape"/><path fill="url(#y)" d="M450.189 821.542c13.327.235 46.633.826 59.95 1.072-4.957 40.058-14.934 76.434-21.602 115.226-7.15 37.704-15.21 64.195-22.25 95.571-2.573 5.842-14.356 3.635-16.749-1.987-1.865-28.897-4.006-64.101 4.56-97.438-1.435-35.937-4.748-76.168-3.909-112.444Z"/><path fill="url(#z)" d="M512.102 1093.438c0-21.281 13.49-21.899 13.49-21.899s7.302 0 19.172-4.921c11.7-4.864 28.206-2.987 18.98 14.027a4.44 4.44 0 0 1-.316.628 8.224 8.224 0 0 1-2.992 2.62l-29.47 17.291c-4.487 2.568-18.757-3.368-18.864-7.746Z"/><path fill="#1e1c6b" d="M512.185 1091.53c.254 4.371 14.33 10.188 18.782 7.64l29.47-17.28a27.265 27.265 0 0 0 4.16-3.028c-.277.585-.513 1.145-.853 1.783a4.44 4.44 0 0 1-.316.628 8.224 8.224 0 0 1-2.992 2.62l-29.47 17.291c-4.2 2.4-16.99-2.647-18.676-6.898a4.634 4.634 0 0 1-.131-.864 13.896 13.896 0 0 1 .026-1.893Z" class="color1e1c6b svgShape"/><path fill="#7f7ff4" d="M517.59 1068.741c3.468 0 15.699 3.107 15.699 3.107a6.863 6.863 0 0 0 1.085 3.17c.126.136.228.271.343.413 2.413 1.678 4.869 4.33-.856 7.923-4.686 2.945-8.493 1.072-10.303-.732a9.421 9.421 0 0 0-3.326-3.77 8.605 8.605 0 0 0-3.183-1.35 1.675 1.675 0 0 0-.034-.288s-.884-8.473.576-8.473Z" class="color7f7ff4 svgShape"/><path fill="url(#A)" d="M492.475 916.783c-3.65-17.218-45.667-19.356-42.908-87.061 13.185-1.94 79.695 29.252 92.874 27.312 1.648 40.33-2.248 77.851-2.497 117.208-.892 38.364-4.521 65.812-6.341 97.925-1.585 6.182-13.573 5.926-16.847.774-6.556-28.201-14.424-62.59-11.415-96.873-3.93-18.991-8.598-39.122-12.866-59.285Z"/><path d="M550.137 754.302c3.131-2.68 6.379-5.471 9.91-8.195a6.713 6.713 0 0 0 .342-2.03 6.708 6.708 0 0 1 2.161-.644 18.131 18.131 0 0 0 6.472-.538v.002c5.737-1.467 12.508-6.048 14.454-7.656a4.41 4.41 0 0 0-5.552-.475c-.95.592 3.583-5.038 6.975-7.757-12.192-.707-17.342 13.523-19.715 14.13v-.002a18.131 18.131 0 0 1-6.472.539 6.7 6.7 0 0 0-2.16.645 6.75 6.75 0 0 1-.343 2.028c-3.531 2.725-6.78 5.516-9.911 8.196 0 5.284 3.417 2.392 3.839 1.757Z" style="mix-blend-mode:multiply" fill="url(#g)"/><path d="M646.64 745.494a55.67 55.67 0 0 0-6.018-3.054 7.653 7.653 0 0 0-.713-.293c.955.474 1.98 1.017 2.893 1.59 3.721 2.336.746 5.441-3.15 5.441-3.897 0-4.696 1.228-8.177 4.722-3.476 3.49-6.55 11.231-18.027 10.527a6.746 6.746 0 0 1-.312 1.613c-16.107 12.425-26.328 26.261-46.469 24.496a59.297 59.297 0 0 1-18.202-4.714 61.557 61.557 0 0 0 22.04 6.471c20.141 1.765 30.362-12.07 46.468-24.496a6.761 6.761 0 0 0 .314-1.612c11.477.704 14.551-7.038 18.026-10.527 3.481-3.495 4.28-4.722 8.177-4.722 3.896 0 6.87-3.105 3.15-5.442Z" style="mix-blend-mode:multiply" fill="url(#B)"/><path fill="#facfa7" d="M584.414 722.678a55.583 55.583 0 0 0-6.018-3.056c-3.895-1.854-10.107-.368-11.83.83-1.724 1.197-12.43 7.77-14.466 12.013 0 0-4.017 2.078-5.582 2.882l5.88 8.992s5.16-2.74 6.373-2.662a18.132 18.132 0 0 0 6.471-.539v.003c5.738-1.467 12.508-6.048 14.454-7.656-2.858-2.584-6.024.279-8.169 1.424a10.872 10.872 0 0 1 1.56-2.068c3.481-3.495 4.28-4.722 8.176-4.722 3.897 0 6.872-3.106 3.151-5.441Z" class="colorfacfa7 svgShape"/><path fill="#5555c6" d="M556.268 744.35c2.064-6.153-5.248-11.57-9.568-11.161-20.198 8.804-29.996 14.042-36.9 12.003-29.046-13.576-17.209 22.147 0 23.655 20.141 1.766 30.361-12.071 46.468-24.497Z" class="color5555c6 svgShape"/><path d="M546.7 733.189c-6.345 2.765-11.66 5.178-16.185 7.124l1.014 2.421s10.958-6.75 12.75-7.625 3.708-1.458 7.541 1.25c3.834 2.709 3.645 7.189 4.447 7.991 2.065-6.153-5.247-11.57-9.567-11.161Z" style="mix-blend-mode:screen" fill="url(#C)"/><path fill="#5555c6" d="M472.177 698.943c-14.608 3.195-32.916 12.533-20.736 38 8.314 17.382 20.736-38 20.736-38Z" class="color5555c6 svgShape"/><path fill="url(#h)" d="M474.838 869.033c28.611 16.055 67.467 10.192 72.822-12.371-19.48-65.36-23.866-108.811-23.402-135.39-12.621-9.745-23.375-18.41-32.62-20.48-9.657-2.161-22.433-3.833-28.067 1.566-17.562 23.687-12.981 64.65-17.373 126.389 3.022 19.762 14.55 32.385 28.64 40.286Z"/><path d="M524.258 721.272c-12.621-9.745-23.375-18.41-32.62-20.48-5.616-1.257-12.279-2.337-17.986-1.969a16.657 16.657 0 0 0 4.644 1.28c6.483.506 10.4.34 25.233 10.162 20.537 13.598 20.874 40.094 20.874 49.344s3.177 31.71 5.626 43.563c2.102 10.177 10.414 46.273 17.631 53.49-19.48-65.36-23.866-108.811-23.402-135.39Z" style="mix-blend-mode:screen" fill="url(#D)"/><path fill="#facfa7" d="M478.296 700.103c4.873-4.594 6.351-12.018 7.162-20.427a41.258 41.258 0 0 1 1.056-14.59c4.557-18.024 19.684-29.737 33.795-26.168 14.107 3.567 21.854 21.065 17.299 39.083-4.222 16.698-18.878 25.923-32.02 27.29-.658 1.424 1.815 3.472 4.112 4.955-10.78 2.86-20.774-2.79-26.08-5.677-2.743-1.492-4.687-2.93-5.324-4.466Z" class="colorfacfa7 svgShape"/><path fill="#20196f" d="M487.239 640.106c5.23-5.042 11.313-.207 14.356-1.783.52-.251 1.068-.513 1.641-.791.006.001.006-.002.012-.008 3.977-2.375 2.071-4.124 5.754-6.316 3.643-2.173 7.176.843 9.543.055l-.012.014c5.603-1.755 10.662-2.485 12.872-.432a15.749 15.749 0 0 1 2.878 3.789v-.008c1.885 3.159 8.411-.899 8.004 5.922-.378 6.406-2.775 8.54-3.788 18.342-.04.568-.084 1.132-.15 1.691-.007.112-.021.212-.027.323-.009-.005-.007-.01-.012-.022-.764 6.341-2.722 12.008-6.023 15.156-.939.894-1.95 1.746-2.978 2.583.854-3.45-4.45-13.263-8.32 2.05-.416 1.643.73 2.28-.904 4.184-1.638 1.905-9.975 5.645-15.727 9.067-8.024 4.788-10.335-1.91-21.208-3.43a17.46 17.46 0 0 0-.342-10.359 49.643 49.643 0 0 1 .058-18.534c.002-.018-.02-.009-.014-.03 2.133-8.435-.727-16.525 4.387-21.463Z" class="color20196f svgShape"/><path fill="#facfa7" d="M604.197 755.818c1.565-.805 4.12-2.14 4.12-2.14.043-.91 3.233-11.023 11.851-13.558 1.773 2.686-1.276 4.865-3.765 7.38 2.991-2.393 6.886-4.79 8.61-5.987 1.723-1.2 7.935-2.684 11.83-.83a55.745 55.745 0 0 1 6.018 3.055c3.72 2.337.746 5.441-3.15 5.441-3.898 0-4.696 1.228-8.177 4.723-3.482 3.495-6.558 11.261-18.086 10.525a4.823 4.823 0 0 0-2.603.974Z" class="colorfacfa7 svgShape"/><path fill="url(#E)" d="M613.194 766.04c2.064-6.153-5.248-11.57-9.567-11.16-20.199 8.803-29.997 14.04-36.901 12.002-29.046-13.575-35.262-38.94-42.468-45.61-16.208-11.533-35.719 13.988-14.464 36.983 22.429 21.006 39.723 30.773 56.932 32.282 20.14 1.765 30.362-12.07 46.468-24.496Z"/><path d="M603.627 754.88c-20.199 8.803-29.997 14.04-36.901 12.002-29.046-13.575-35.262-38.94-42.468-45.61a15.452 15.452 0 0 0-5.18-2.435c-2.444-.657-4.334-.402-4.591-.09 7.542 3.827 19.542 21.737 26.542 32.337s19.25 17.275 29.375 17.916c10.125.64 26.062-9.516 27.75-10.39 1.687-.876 7.125-3.376 11-.376s3.398 7.165 4.04 7.807c2.064-6.154-5.248-11.571-9.567-11.162Z" style="mix-blend-mode:screen" fill="url(#F)"/><path d="m534.282 634.626.001.008a15.754 15.754 0 0 0-2.878-3.789c-1.615-1.5-4.758-1.505-8.515-.72 2.15-.33 4.795.002 6.014 3.797 1.625 5.062 6.5 3.744 9.125 3.744s.5 6.693-1.625 12.692c-2.118 5.976-1.258 18.777-2.469 23.706 2.308-3.275 3.75-7.99 4.375-13.182.005.012.003.017.012.022.006-.11.02-.211.028-.323.065-.56.109-1.123.149-1.69 1.013-9.803 3.41-11.937 3.788-18.343.407-6.82-6.12-2.763-8.005-5.922Z" style="mix-blend-mode:screen" fill="url(#G)"/><path style="mix-blend-mode:multiply" fill="url(#i)" d="M331.13 680.756h-52.894l33.065 19.681-33.065 19.093h52.894l33.567-19.38-33.567-19.394z"/><path fill="#1e1c6b" d="m278.236 719.53 33.065-19.093V661.67l-33.065 19.086v38.774z" class="color1e1c6b svgShape"/><path fill="#34318f" d="m278.236 719.53-33.067-19.093V661.67l33.067 19.086v38.774z" class="color34318f svgShape"/><path fill="#5555c6" d="m278.236 680.756-33.067-19.086 33.067-19.084 33.065 19.084-33.065 19.086z" class="color5555c6 svgShape"/><path style="mix-blend-mode:multiply" fill="url(#H)" d="M1141.94 1078.589h-47.674l29.802 17.74-29.802 17.209h47.674l30.255-17.468-30.255-17.481z"/><path fill="#1e1c6b" d="m1094.266 1113.538 29.802-17.209v-34.943l-29.802 17.203v34.949z" class="color1e1c6b svgShape"/><path fill="#34318f" d="m1094.266 1113.538-29.805-17.209v-34.943l29.805 17.203v34.949z" class="color34318f svgShape"/><path fill="#5555c6" d="m1094.266 1078.589-29.805-17.203 29.805-17.2 29.802 17.2-29.802 17.203z" class="color5555c6 svgShape"/><path style="mix-blend-mode:multiply" fill="url(#I)" d="M299.164 1154.527h-35.85l22.411 13.34-22.411 12.941h35.85l22.751-13.136-22.751-13.145z"/><path fill="#1e1c6b" d="m263.314 1180.808 22.411-12.941v-26.276l-22.411 12.936v26.281z" class="color1e1c6b svgShape"/><path fill="#34318f" d="m263.314 1180.808-22.412-12.941v-26.276l22.412 12.936v26.281z" class="color34318f svgShape"/><path fill="#5555c6" d="m263.314 1154.527-22.412-12.936 22.412-12.934 22.411 12.934-22.411 12.936z" class="color5555c6 svgShape"/></g></svg>