<svg xmlns="http://www.w3.org/2000/svg" xmlns:xlink="http://www.w3.org/1999/xlink" viewBox="0 0 1000 800"><defs><linearGradient id="a" x1="79.19" x2="920.81" y1="170.205" y2="170.205" gradientTransform="matrix(1 0 0 -1 0 800)" gradientUnits="userSpaceOnUse"><stop offset="0" stop-color="#2e45e5" class="stopColor2e45e5 svgShape"/><stop offset="1" stop-color="#3478e5" class="stopColor3478e5 svgShape"/></linearGradient><linearGradient id="d" x1="200.45" x2="799.56" y1="266.515" y2="266.515" xlink:href="#a"/><linearGradient id="b" x1="332.61" x2="655.04" y1="422.18" y2="422.18" gradientTransform="matrix(1 0 0 -1 0 800)" gradientUnits="userSpaceOnUse"><stop offset="0" stop-color="#2e45e5" class="stopColor2e45e5 svgShape"/><stop offset=".39" stop-color="#3160e5" class="stopColor3160e5 svgShape"/><stop offset=".742" stop-color="#3372e5" class="stopColor3372e5 svgShape"/><stop offset="1" stop-color="#3478e5" class="stopColor3478e5 svgShape"/></linearGradient><linearGradient id="e" x1="492.765" x2="492.765" y1="599.655" y2="356.747" gradientTransform="matrix(1 0 0 -1 0 800)" gradientUnits="userSpaceOnUse"><stop offset=".209" stop-color="#ffc496" class="stopColorffc496 svgShape"/><stop offset=".677" stop-color="#ff7c4b" class="stopColorff7c4b svgShape"/></linearGradient><linearGradient id="f" x1="494.65" x2="494.65" y1="184.96" y2="657.992" xlink:href="#b"/><linearGradient id="g" x1="492.83" x2="492.83" y1="476.72" y2="362.933" gradientTransform="matrix(1 0 0 -1 0 800)" gradientUnits="userSpaceOnUse"><stop offset=".131" stop-color="#ffc496" class="stopColorffc496 svgShape"/><stop offset=".654" stop-color="#ff7c4b" class="stopColorff7c4b svgShape"/></linearGradient><linearGradient id="c" x1="493.805" x2="493.805" y1="521.202" y2="652.165" gradientTransform="matrix(1 0 0 -1 0 800)" gradientUnits="userSpaceOnUse"><stop offset="0" stop-color="#000000" class="stopColor000000 svgShape"/><stop offset=".204" stop-color="#151213" class="stopColor151213 svgShape"/><stop offset=".498" stop-color="#2d2628" class="stopColor2d2628 svgShape"/><stop offset=".77" stop-color="#3c3235" class="stopColor3c3235 svgShape"/><stop offset=".996" stop-color="#413639" class="stopColor413639 svgShape"/></linearGradient><linearGradient id="h" x1="492.75" x2="492.75" y1="434.429" y2="551.946" xlink:href="#c"/><linearGradient id="i" x1="459.091" x2="468.471" y1="403.387" y2="403.387" xlink:href="#c"/><linearGradient id="j" x1="517.609" x2="529.861" y1="398.953" y2="398.953" xlink:href="#c"/><linearGradient id="k" x1="434.24" x2="551.79" y1="531.905" y2="531.905" xlink:href="#c"/><linearGradient id="l" x1="493.705" x2="493.705" y1="381.698" y2="3.731" gradientTransform="matrix(1 0 0 -1 0 800)" gradientUnits="userSpaceOnUse"><stop offset=".097" stop-color="#2e45e5" class="stopColor2e45e5 svgShape"/><stop offset=".449" stop-color="#3160e5" class="stopColor3160e5 svgShape"/><stop offset=".767" stop-color="#3372e5" class="stopColor3372e5 svgShape"/><stop offset="1" stop-color="#3478e5" class="stopColor3478e5 svgShape"/></linearGradient><linearGradient id="m" x1="803.68" x2="803.68" y1="260.73" y2="325.03" gradientTransform="matrix(1 0 0 -1 0 800)" gradientUnits="userSpaceOnUse"><stop offset=".322" stop-color="#000000" class="stopColor000000 svgShape"/><stop offset=".408" stop-color="#151213" class="stopColor151213 svgShape"/><stop offset=".531" stop-color="#2d2628" class="stopColor2d2628 svgShape"/><stop offset=".645" stop-color="#3c3235" class="stopColor3c3235 svgShape"/><stop offset=".741" stop-color="#413639" class="stopColor413639 svgShape"/></linearGradient><linearGradient id="n" x1="803.665" x2="803.665" y1="237.216" y2="321.138" gradientTransform="matrix(1 0 0 -1 0 800)" gradientUnits="userSpaceOnUse"><stop offset=".347" stop-color="#000000" class="stopColor000000 svgShape"/><stop offset=".429" stop-color="#151213" class="stopColor151213 svgShape"/><stop offset=".548" stop-color="#2d2628" class="stopColor2d2628 svgShape"/><stop offset=".658" stop-color="#3c3235" class="stopColor3c3235 svgShape"/><stop offset=".75" stop-color="#413639" class="stopColor413639 svgShape"/></linearGradient><linearGradient id="o" x1="803.695" x2="803.695" y1="214.028" y2="288.438" xlink:href="#c"/><linearGradient id="p" x1="115.957" x2="265.344" y1="208.356" y2="208.356" gradientTransform="matrix(1 0 0 -1 0 800)" gradientUnits="userSpaceOnUse"><stop offset="0" stop-color="#000000" class="stopColor000000 svgShape"/><stop offset=".37" stop-color="#1e191a" class="stopColor1e191a svgShape"/><stop offset=".761" stop-color="#382e31" class="stopColor382e31 svgShape"/><stop offset=".996" stop-color="#413639" class="stopColor413639 svgShape"/></linearGradient></defs><g data-name="Layer 1" fill="#000000" class="color000 svgShape"><path fill="url(#a)" d="M79.19 629.795a1.003 1.003 0 0 0 1 1h839.62a1.003 1.003 0 0 0 1-1 1.003 1.003 0 0 0-1-1H80.19a1.003 1.003 0 0 0-1 1Z"/><path fill="url(#d)" d="M200.45 533.485a1.003 1.003 0 0 0 1 1h597.11a1.003 1.003 0 0 0 1-1 1.003 1.003 0 0 0-1-1H201.45a.99.99 0 0 0-1 1Z"/></g><g data-name="Layer 2" fill="#000000" class="color000 svgShape"><path fill="#ffffff" d="M653.16 272.135v261.31H334.73v-261.31a50.076 50.076 0 0 1 50.01-50.02h218.41a50.076 50.076 0 0 1 50.01 50.02Z" class="colorfff svgShape"/><path fill="url(#b)" d="M603.03 220.155H384.62a52.075 52.075 0 0 0-52.01 52.02v263.31h322.43v-263.31a52.075 52.075 0 0 0-52.01-52.02Zm50.01 313.33H334.61v-261.31a50.076 50.076 0 0 1 50.01-50.02h218.41a50.076 50.076 0 0 1 50.01 50.02v261.31Z"/><path fill="url(#e)" d="M553.1 252.735h-1.58v-.68a28.957 28.957 0 0 0-28.93-28.92h-59.66a28.957 28.957 0 0 0-28.93 28.92v.68h-1.57a14.79 14.79 0 0 0 0 29.58h2.02a58.74 58.74 0 0 0 116.62 0h2.03a14.79 14.79 0 0 0 0-29.58Z"/><path fill="#e6635d" d="M429.92 259.385c-.21.02-5.24.46-6.66 6.87a.996.996 0 0 0 .76 1.19.82.82 0 0 0 .22.02 1.013 1.013 0 0 0 .98-.78c1.09-4.9 4.7-5.29 4.86-5.3a.997.997 0 0 0 .92-1.07 1.014 1.014 0 0 0-1.08-.93ZM562.56 266.255c-1.42-6.41-6.45-6.85-6.66-6.87a1.003 1.003 0 0 0-.16 2c.15.01 3.77.39 4.86 5.3a.994.994 0 0 0 .98.78 1.798 1.798 0 0 0 .22-.02.996.996 0 0 0 .76-1.19Z" class="colore6635d svgShape"/><path fill="url(#f)" d="M727.42 567.315c-10.19 7.06-39.88 18.1-66.19 22.68l-.09.01-335.58-.01c-26.36-4.58-53.11-16.96-63.68-24.28a8.614 8.614 0 0 1-3.31-9.82c2.45-7.47 5.18-14.96 8.15-22.4v-.01c.02-.04.03-.08.05-.12.01-.01.01-.02.02-.03.02-.04.04-.09.07-.16 25.12-62.99 66.85-123.43 94.49-155.56 2.19-2.54 4.29-4.91 6.28-7.08a81.275 81.275 0 0 1 32.58-21.52c.24-.09.48-.18.72-.26a81.002 81.002 0 0 1 11.61-3.08l5.14-.94.31-.06h41.98v6.23l31.62 25.19 33.65-25.59-.55-5.83 41.5.02q.795 0 1.59.03 1.035.03 2.13.09l.45.03q.51.03 1.02.09c1.82.16 3.64.41 5.44.74a.037.037 0 0 0 .03.01 78.335 78.335 0 0 1 9.68 2.44 81.375 81.375 0 0 1 35.2 22.41c28.73 31.33 83.73 109.8 109 186.96a8.615 8.615 0 0 1-3.31 9.82Z"/><path fill="url(#g)" d="M527.8 329.495a57.837 57.837 0 0 0-.99 16.2c.15 2.24.42 4.54.8 6.88l.11.63-36.06 24.18-33.85-22.25.05-.59c.43-5.51.46-10.91.36-15.29v-.14c-.04-1.46-.09-2.8-.14-3.99l-.01-.2c-.16-3.38-.35-5.49-.36-5.54l-.11-1.09h70.46Z"/><path d="M518.17 361.295s-6.54 12.98-2.82 31.34a292.944 292.944 0 0 0 8.39 32.21s-8.8 13.85-6.13 17.32a7.577 7.577 0 0 0 6.71 2.88s1.67-20.21 0-27.82-8.43-45.53-6.15-55.93Z" style="isolation:isolate" fill="#03007a" opacity=".2" class="color03007a svgShape"/><path fill="#ffffff" d="M567.46 343.305a2.027 2.027 0 0 1-.66 1.06l-.02.01a1.946 1.946 0 0 1-.65.35c-37.96 11.68-64.45 24.32-74.67 33.46 3.26-5.9.29-12.51 35.19-26.29l.72-.56-.1-.55a61.955 61.955 0 0 1-.6-13 49.975 49.975 0 0 1 1.06-7.95l4.2-3.56c.05 0 .1.01.16.01.11.01.24.02.38.03h.01c.15.01.31.02.49.04.72.06 1.69.17 2.87.34q.39.06.81.12c.2.03.39.07.6.1l4.46.93c.41.1.83.2 1.25.32l1.3.36c.39.11.79.23 1.19.35l1.52.5a55.497 55.497 0 0 1 11.39 5.31v.01a45.815 45.815 0 0 1 8.6 6.77 1.893 1.893 0 0 1 .5 1.84Z" class="colorfff svgShape"/><path fill="#ffffff" d="M491.65 377.815c-13.13-7.79-34.8-21.41-72.76-33.09a2.135 2.135 0 0 1-.6-.31.306.306 0 0 1-.07-.05 2.026 2.026 0 0 1-.66-1.06 1.894 1.894 0 0 1 .5-1.84 48.518 48.518 0 0 1 13.45-9.43.037.037 0 0 0 .03-.01 59.892 59.892 0 0 1 11.57-4.13c.31-.08.62-.15.92-.22.9-.21 1.76-.39 2.57-.55q.825-.15 1.56-.27c.38-.06.74-.12 1.09-.17.1-.01.19-.03.29-.04q.66-.09 1.2-.15c.79-.1 1.44-.15 1.9-.19q.27-.015.45-.03l4.2 3.56a69.575 69.575 0 0 1 1.41 14.17 78.638 78.638 0 0 1-.33 7.89c27.27 13.73 31.6 21.11 33.28 25.92Z" class="colorfff svgShape"/><path d="M526.81 352.045s11.85-6.4 20.16-7.67c0 0-17.25 1.54-20.3 4.56ZM458.37 351.895c-1.77-.89-3.7-1.77-5.79-2.6a74.919 74.919 0 0 0-9.35-3.03 43 43 0 0 1 5.11.13 33.496 33.496 0 0 1 10.03 2.21v3.29Z" style="isolation:isolate" fill="#03007a" opacity=".2" class="color03007a svgShape"/><path d="M567.46 343.305a2.027 2.027 0 0 1-.66 1.06l-.02.01c-.35-.51-4.85-10.67-21-9.25-6.14 1.13-13.4 3.77-19.03 9.6l-.08-6.94a49.975 49.975 0 0 1 1.06-7.95l4.2-3.56c.05 0 .1.01.16.01.11.01.23.01.38.03h.01c.15.01.31.02.49.04.72.06 1.69.17 2.87.34q.39.06.81.12c.2.03.39.07.6.1l4.46.93c.41.1.83.2 1.25.32l1.3.36c.39.11.79.23 1.19.35l1.52.5a55.496 55.496 0 0 1 11.39 5.31v.01a45.816 45.816 0 0 1 8.6 6.77 1.893 1.893 0 0 1 .5 1.84ZM458.7 344.005a61.271 61.271 0 0 0-10.89-8.06c-10.27-5.23-21.44.91-27.53 4.87-2.99 1.95-1.39 3.91-1.39 3.91a5.577 5.577 0 0 1-.6-.31.306.306 0 0 1-.07-.05 2.026 2.026 0 0 1-.66-1.06 1.894 1.894 0 0 1 .5-1.84 48.518 48.518 0 0 1 13.45-9.43.037.037 0 0 0 .03-.01 59.892 59.892 0 0 1 11.57-4.13c.31-.08.62-.15.92-.22.91-.21 1.77-.39 2.57-.55q.825-.15 1.56-.27c.38-.06.74-.12 1.09-.17.1-.01.19-.03.29-.04q.645-.09 1.2-.15c.79-.1 1.44-.15 1.9-.19q.27-.015.45-.03l4.2 3.56a69.575 69.575 0 0 1 1.41 14.17ZM465.09 361.295s12.93 44.81 2.7 59.45c0 0 5.07 11.97 3.94 14.21s-5.76.63-5.76.63-3.67-7.35-2.04-11.69c1.62-4.34 1.16-62.6 1.16-62.6Z" style="isolation:isolate" fill="#03007a" opacity=".2" class="color03007a svgShape"/><path fill="url(#c)" d="m551.4 252.655-.76 1.36-14.74-19.86a9.914 9.914 0 0 0-12.43-2.95l-25.39 12.73a9.5 9.5 0 0 1-8.58-.05l-24.9-12.85a9.906 9.906 0 0 0-12.09 2.35l-17.8 20.66-.63-1.48c-5.57-13.1-8.45-33.29-2.32-48.87 5.05-12.85 19.74-17.79 26.79-20.16.97-.32 1.79-.6 2.43-.84.11-.11.32-.34.51-.55 7.89-8.59 19.2-12.94 33.62-12.94 15.49 0 26.02 8.49 30.52 12.12a17.683 17.683 0 0 0 1.63 1.25c.44.09 1.04.22 1.71.36 7.91 1.69 26.41 5.63 29.48 25.09 3.87 24.5-6.94 44.44-7.05 44.63Z"/><path d="M527.8 329.325c-1.07 4.27-1.4 14.34-.99 19.27-9.7 3.34-24.82 7.93-35.35 7.04-14.21-1.21-33.24-17.97-33.24-17.97v-.12l-.14-3.41-.01-.17-.22-5.66h70.21Z" style="isolation:isolate" fill="#03007a" opacity=".3" class="color03007a svgShape"/><path fill="url(#h)" d="m513.26 311.805-.18-.63a18.213 18.213 0 0 0-17.47-13.24h-5.78a18.188 18.188 0 0 0-17.67 13.84L434 275.585v29.65a32.859 32.859 0 0 0 13.24 26.31c14.11 10.43 33.46 22.87 45.51 22.87s31.4-12.44 45.51-22.87a32.845 32.845 0 0 0 13.24-26.31v-29.65Z"/><path fill="#e6635d" d="M497.98 314.025a1.003 1.003 0 0 0-1.25-.67c-9.02 2.74-12.05-3.97-12.18-4.27a1 1 0 0 0-1.84.78 10.975 10.975 0 0 0 9.94 6.15 15.893 15.893 0 0 0 4.66-.75.997.997 0 0 0 .67-1.24Z" class="colore6635d svgShape"/><path fill="#2e45e5" d="M464.63 355.975c-1.62-.56-3.14-.11-3.54 1.05a1.966 1.966 0 0 0 .48 1.94 3.886 3.886 0 0 0 1.66 1.07 4.244 4.244 0 0 0 1.36.24 2.168 2.168 0 0 0 2.19-1.29 1.966 1.966 0 0 0-.48-1.94 3.986 3.986 0 0 0-1.67-1.07ZM522.47 357.025c-.4-1.16-1.93-1.61-3.54-1.05a3.886 3.886 0 0 0-1.66 1.07 1.843 1.843 0 0 0 1.1 3.18 2.978 2.978 0 0 0 .6.05 4.108 4.108 0 0 0 1.36-.24c1.62-.55 2.54-1.85 2.14-3.01Z" class="color2e45e5 svgShape"/><path d="M306.72 476.685s-1.49 75.26 6.06 98.47l12.31 5.79ZM681.72 488.725s2.21 63.51-5.34 86.72l-12.31 5.79Z" style="isolation:isolate" fill="#03007a" opacity=".2" class="color03007a svgShape"/><path fill="url(#i)" d="M467.8 420.745a5.213 5.213 0 0 0-2.24-1.19c.04-.34.08-.68.13-1.01 2.7-17.18-.66-58.31-.81-60.05a.999.999 0 0 0-1.99.17c.04.42 3.48 42.63.83 59.58-.05.34-.09.68-.13 1.02a7.464 7.464 0 0 0-.82 0 4.525 4.525 0 0 0-3.12 1.17 2.502 2.502 0 0 0-.24 2.79 7.01 7.01 0 0 0 3.9 3.31 37.387 37.387 0 0 0 1.43 8.39 1.002 1.002 0 0 0 .96.72.905.905 0 0 0 .28-.04 1.006 1.006 0 0 0 .68-1.24 35.933 35.933 0 0 1-1.36-8.23 6.52 6.52 0 0 0 3-2.86 2.268 2.268 0 0 0-.5-2.53Z"/><path fill="url(#j)" d="M529.03 425.135a5.288 5.288 0 0 0-2.77-1.43 306.228 306.228 0 0 0-4.96-33.78 94.943 94.943 0 0 1-.68-31.73.996.996 0 1 0-1.96-.36 97.094 97.094 0 0 0 .69 32.48 309.576 309.576 0 0 1 4.91 33.17 3.933 3.933 0 0 0-3.27 1.83 3.752 3.752 0 0 0-.23 3.68 5.605 5.605 0 0 0 3.64 2.88c-.31 6.11-1.05 12-1.06 12.07a1.002 1.002 0 0 0 .87 1.12c.04 0 .08.01.13.01a.994.994 0 0 0 .99-.87c.01-.07.79-6.24 1.09-12.53a6.47 6.47 0 0 0 3.13-2.96 3.162 3.162 0 0 0-.52-3.58Z"/><path fill="url(#k)" d="m551.79 253.845-1.35-1.47-14.82 13.58a17.018 17.018 0 0 0-33.9 1.89h-20.9a17.016 17.016 0 0 0-33.85-2.23l-11.21-13.15-1.52 1.3 12.55 14.72a17.022 17.022 0 0 0 33.95 1.36h21.05a17.023 17.023 0 0 0 33.95-1.29Zm-87.98 29.27a15.03 15.03 0 1 1 15.03-15.03 15.044 15.044 0 0 1-15.03 15.03Zm54.93 0a15.03 15.03 0 1 1 15.03-15.03 15.044 15.044 0 0 1-15.03 15.03Z"/><path d="m393.66 455.205 2.13-22.58 2.86 22.58h-4.99zM606.21 455.985v-24.59l-3.92 24.59h3.92z" style="isolation:isolate" fill="#03007a" opacity=".2" class="color03007a svgShape"/><path fill="#ffffff" d="m680.02 494.715-24.53 119.45a18.37 18.37 0 0 1-17.93 14.63H349.85a18.389 18.389 0 0 1-17.94-14.63l-24.53-119.45a32.242 32.242 0 0 1 31.59-38.73h309.47a32.24 32.24 0 0 1 31.58 38.73Z" class="colorfff svgShape"/><path fill="url(#l)" d="M674.98 466.585a34.115 34.115 0 0 0-26.54-12.6H338.97a34.233 34.233 0 0 0-33.54 41.13l24.53 119.45a20.372 20.372 0 0 0 19.89 16.23h287.71a20.372 20.372 0 0 0 19.89-16.23l24.53-119.45a34.111 34.111 0 0 0-7-28.53Zm5.04 28.13-24.53 119.45a18.37 18.37 0 0 1-17.93 14.63H349.85a18.389 18.389 0 0 1-17.94-14.63l-24.53-119.45a32.242 32.242 0 0 1 31.59-38.73h309.47a32.24 32.24 0 0 1 31.58 38.73Z"/><path fill="#ffc062" d="M491 512.375a30.01 30.01 0 1 0 30.01 30.01 30.04 30.04 0 0 0-30.01-30.01Z" class="colorffc062 svgShape"/><path fill="#ffffff" d="M474.38 545.315a2.293 2.293 0 0 1-.16-3.39l7.73-7.73a.997.997 0 1 0-1.41-1.41l-7.73 7.73a4.304 4.304 0 0 0 .28 6.35l7.51 6.26a.97.97 0 0 0 .64.23.99.99 0 0 0 .77-.36 1 1 0 0 0-.13-1.41ZM508.44 540.505l-7.73-7.73a.997.997 0 1 0-1.41 1.41l7.73 7.73a2.281 2.281 0 0 1 .67 1.73 2.257 2.257 0 0 1-.83 1.66l-7.51 6.26a1.008 1.008 0 0 0-.13 1.41.99.99 0 0 0 .77.36 1.026 1.026 0 0 0 .64-.23l7.51-6.26a4.304 4.304 0 0 0 .29-6.34ZM494.96 528.115a.994.994 0 0 0-1.24.68l-8.04 27.19a.994.994 0 0 0 .68 1.24.903.903 0 0 0 .28.04 1.002 1.002 0 0 0 .96-.72l8.04-27.19a1.002 1.002 0 0 0-.68-1.24Z" class="colorfff svgShape"/><path d="m325.09 580.945.47 9.05c-26.36-4.58-53.11-16.96-63.68-24.28a8.614 8.614 0 0 1-3.31-9.82c2.45-7.47 5.18-14.96 8.15-22.4.17 22.9 58.37 47.45 58.37 47.45ZM418.89 344.725c-.41 0-.82 0-1.21.01l-5.14.94a79.08 79.08 0 0 0-7.8 1.88h-.02c-.05.02-.11.04-.16.06a79.583 79.583 0 0 0-15.04 6.1 85.438 85.438 0 0 0-21.88 16.83c-1.99 2.17-4.09 4.54-6.28 7.08-27.64 32.13-69.37 92.57-94.49 155.56 3.51-7.73 64.66-125.54 120.04-171.48a92.016 92.016 0 0 1 31.98-16.98ZM491.61 377.805c-28.34-10.3-74.78-11.93-72.72-33.08 0 0 38.67 9.61 72.72 33.08Z" style="isolation:isolate" fill="#03007a" opacity=".2" class="color03007a svgShape"/><path d="M491.5 377.805c18.66-14.01 62.06-29.96 74.29-33.08 0 0 20.06 11.01-74.29 33.08ZM664.54 580.945l-1.67 8.76c26.36-4.58 53.98-15.07 64.55-22.39a8.614 8.614 0 0 0 3.31-9.82c-2.45-7.47-5.63-16.17-8.6-23.61-.17 22.9-57.59 47.06-57.59 47.06Z" style="isolation:isolate" fill="#03007a" opacity=".2" class="color03007a svgShape"/><path d="M628.28 377.615c-2.14-2.58-4.29-4.91-6.28-7.08a85.44 85.44 0 0 0-21.88-16.83 79.856 79.856 0 0 0-15.04-6.1c-.05-.02-.11-.04-.16-.06h-.02q-3.84-1.125-7.8-1.88s-7.09-1.3-11.3-.95c0 0 24.6 1.51 46.81 24.86 54.69 57.48 106.51 157.59 109.24 163.59-25.62-63.44-66.08-122.41-93.57-155.55Z" style="isolation:isolate" fill="#03007a" opacity=".2" class="color03007a svgShape"/></g><g data-name="Layer 3" fill="#000000" class="color000 svgShape"><path fill="url(#m)" d="M827.27 498.735h-47.19a8.559 8.559 0 0 0-8.55 8.55v4.46h64.3v-4.46a8.58 8.58 0 0 0-8.56-8.55Z"/><path fill="#ffffff" d="m839.75 518.755-11.86 82.65a11.978 11.978 0 0 1-11.8 10.22h-24.84a11.96 11.96 0 0 1-11.79-10.22l-11.87-82.65Z" class="colorfff svgShape"/><path d="m765.28 516.755 12.19 84.94a13.988 13.988 0 0 0 13.78 11.93h24.84a13.988 13.988 0 0 0 13.78-11.93l12.19-84.94Zm50.81 94.87h-24.84a11.96 11.96 0 0 1-11.79-10.22l-11.87-82.65h72.16l-11.86 82.65a11.978 11.978 0 0 1-11.8 10.22Z" fill="#000000" class="color000 svgShape"/><path fill="#2e45e5" d="M803.67 563.155a8.895 8.895 0 1 0 8.9 8.89 8.903 8.903 0 0 0-8.9-8.89Z" class="color2e45e5 svgShape"/><path fill="url(#n)" d="M833.55 509.635h-59.76a13.102 13.102 0 0 0-13.09 13.09v1h85.93v-1a13.087 13.087 0 0 0-13.08-13.09Z"/><path fill="url(#o)" d="m835.65 547.845-.65 4.48a173.398 173.398 0 0 1-31.33 2.87h-.06a172.137 172.137 0 0 1-31.2-2.86l-.65-4.49-4.75 3.7-.52.45.13.48a1.448 1.448 0 0 0-.02.42l5.03 32.01a7.213 7.213 0 0 0 6.14 6.06 181.962 181.962 0 0 0 25.64 1.68 168.543 168.543 0 0 0 25.93-1.82 7.261 7.261 0 0 0 6.04-5.97l5.36-32.04a1.147 1.147 0 0 0 .01-.19l.15-.69Zm-31.98 33.1a8.895 8.895 0 1 1 8.9-8.9 8.905 8.905 0 0 1-8.9 8.9Z"/><path fill="#ffc062" d="M812.57 572.045a8.895 8.895 0 1 1-8.9-8.89 8.907 8.907 0 0 1 8.9 8.89Z" class="colorffc062 svgShape"/></g><g data-name="Layer 4" fill="#000000" class="color000 svgShape"><path fill="url(#p)" d="m263.02 576.925-33.95-7.57a12.842 12.842 0 0 0-5.65.28l-104.4 29.61a5.116 5.116 0 0 0-3.05 5.18 3.18 3.18 0 0 0 2.35 3.14l30.3 6.36.04.01a12.266 12.266 0 0 0 2.18.19 12.62 12.62 0 0 0 3.46-.48l108.95-31.15a2.863 2.863 0 0 0-.23-5.57Zm-38.94-2.72a10.879 10.879 0 0 1 1.81.16l21.56 4.81a1.074 1.074 0 0 1 .1 2.09l-92.19 25.81a11.186 11.186 0 0 1-4.85.24l-24.52-3.96a1.073 1.073 0 0 1-.11-2.09l95.21-26.65a11.235 11.235 0 0 1 2.99-.41Z"/><path fill="#ffffff" d="m247.45 579.175-21.56-4.81a10.879 10.879 0 0 0-1.81-.16 11.232 11.232 0 0 0-2.99.41l-95.21 26.65a1.073 1.073 0 0 0 .11 2.09l24.52 3.96a11.186 11.186 0 0 0 4.85-.24l92.19-25.81a1.074 1.074 0 0 0-.1-2.09Z" class="colorfff svgShape"/></g></svg>