<svg xmlns="http://www.w3.org/2000/svg" enable-background="new 0 0 4680 3120" viewBox="0 0 4680 3120"><defs><filter id="a" width="4680" height="491.865" x="0" y="2404.24" filterUnits="userSpaceOnUse"><feFlood flood-color="#fff" flood-opacity="1" result="back"/><feBlend in="SourceGraphic" in2="back"/></filter></defs><mask id="b" width="4680" height="491.865" x="0" y="2404.24" maskUnits="userSpaceOnUse"><g filter="url(#a)" fill="#000000" class="color000 svgShape"><path fill="url(#SVGID_2_)" d="M0 2404.24h4680v491.865H0z" mask="url(#b)"/></g></mask><linearGradient id="c" x1="2340" x2="2340" y1="3087.392" y2="2286.419" gradientUnits="userSpaceOnUse"><stop offset="0" stop-color="#f3f6fd" class="stopColorf3f6fd svgShape"/><stop offset=".984" stop-color="#e2eefa" class="stopColore2eefa svgShape"/></linearGradient><path fill="url(#c)" d="M0 2404.24h4680v491.865H0z"/><path fill="#c7d0e0" d="M3304.165 2539.606H1128.861c-8.8 0-16-7.2-16-16v-52.442c0-8.8 7.2-16 16-16h2175.304c8.8 0 16 7.2 16 16v52.442c0 8.8-7.2 16-16 16z" opacity=".64" class="colorc7d0e0 svgShape"/><path fill="#8bbae8" d="M1260.668 2476.218h467.006c24.896 0 45.148-20.252 45.148-45.144v-335.897c0-24.9-20.252-45.152-45.148-45.152H1569.08c-10.884 0-20.297-6.999-23.429-17.408l-144.421-479.08c-12.149-40.325-48.616-67.414-90.735-67.414h-152.452c-14.429 0-27.637 6.64-36.242 18.224-8.605 11.575-11.145 26.138-6.981 39.957l148.997 494.271c5.788 19.211 23.168 32.124 43.232 32.124h158.59c13.495 0 24.479 10.983 24.479 24.479v335.897c0 13.496-10.983 24.469-24.479 24.469h-204.971v20.674zm467.006-405.519c13.495 0 24.474 10.983 24.474 24.479v335.897c0 13.496-10.979 24.469-24.474 24.469h-224.106a44.888 44.888 0 0 0 7.223-24.469v-335.897c0-24.9-20.252-45.152-45.152-45.152h-158.59c-10.884 0-20.297-6.999-23.438-17.408l-148.997-494.289c-2.261-7.483-.879-15.38 3.787-21.652 4.657-6.281 11.818-9.879 19.642-9.879h152.452c32.931 0 61.438 21.185 70.941 52.708l144.421 479.08c5.779 19.202 23.15 32.115 43.223 32.115h158.594z" class="color8bbae8 svgShape"/><path fill="#0e1c56" d="M1438.595 1835.104h-202.603c-16.401 0-30.874-10.75-35.559-26.463l-68.086-225.62c-4.548-15.161 6.891-30.46 22.604-30.46h202.742c16.401 0 30.735 10.751 35.559 26.464l67.948 225.621c4.548 15.159-6.754 30.458-22.605 30.458z" class="color0e1c56 svgShape"/><path fill="#1b65f8" d="M1438.613 1835.104h-175.038c-16.401 0-30.874-10.75-35.559-26.463l-68.086-225.62c-4.548-15.161 6.891-30.46 22.603-30.46h175.039c16.4 0 30.873 10.751 35.697 26.464l67.948 225.621c4.549 15.159-6.753 30.458-22.604 30.458zM1326.683 1974.537h425.286a3.375 3.375 0 0 1 3.375 3.375v75.875h-432.036v-75.875a3.375 3.375 0 0 1 3.375-3.375z" class="color1b65f8 svgShape"/><path fill="#0e1c56" d="M1305.433 2024.704h467.786c.837 0 1.515.678 1.515 1.515v43.241c0 .836-.678 1.515-1.515 1.515h-467.786a1.515 1.515 0 0 1-1.515-1.515v-43.241c0-.837.679-1.515 1.515-1.515z" class="color0e1c56 svgShape"/><path fill="#daebff" d="M1260.668 2489.241h204.971c24.9 0 45.152-20.252 45.152-45.143v-335.897c0-24.9-20.252-45.152-45.152-45.152h-158.59c-10.884 0-20.297-6.999-23.438-17.408l-148.997-494.28c-2.261-7.492-.879-15.389 3.787-21.661 4.657-6.281 11.818-9.879 19.642-9.879h152.452c5.707 0 10.337-4.63 10.337-10.337s-4.63-10.337-10.337-10.337h-152.452c-14.429 0-27.637 6.64-36.242 18.224-8.605 11.575-11.145 26.139-6.981 39.957l148.997 494.271c5.788 19.211 23.168 32.124 43.232 32.124h158.59c13.495 0 24.479 10.983 24.479 24.479v335.897c0 13.495-10.983 24.469-24.479 24.469h-204.971c-5.707 0-10.337 4.63-10.337 10.337 0 5.706 4.63 10.336 10.337 10.336z" class="colordaebff svgShape"/><path fill="#e86456" d="M1846.192 1606.567c1.991 1.493 25.384 4.479 43.302-9.954 17.918-14.434 28.868-19.245 36.334-14.6s36.334 25.867 36.334 25.867-111.49 46.469-115.969 41.491c-4.481-4.977-.001-42.804-.001-42.804z" class="colore86456 svgShape"/><path fill="#d15046" d="M1852.911 1632.449s42.306-20.656 53.007-32.103c10.701-11.448 28.134-10.717 33.229-5.358 5.095 5.358-53.387 51.646-64.835 52.393-11.447.746-21.401-14.932-21.401-14.932z" class="colord15046 svgShape"/><path fill="#ed6658" d="m2009.943 2365.097 39.569 64.18 70.774-6.858s-45.764-87.932-56.963-109.209-53.38 51.887-53.38 51.887z" class="colored6658 svgShape"/><path fill="#081849" d="M2089.27 2350.445c-9.052 7.244-21.994 12.047-34.203 15.189-5.454 1.4-10.761 2.474-15.515 3.305-10.956 1.888-18.966 2.409-18.966 2.409-141.845-128.414-165.678-398.672-165.678-398.672s-175.56-2.8-310.795-23.247c-25.152-3.793-48.904-8.205-69.872-13.317-31.045-7.554-55.986-16.67-70.328-27.643-59.063-45.16-40.878-122.667-29.759-155.178 3.223-9.41 5.861-15.042 5.861-15.042s-91.459-63.458 257.951 24.631c35.49 8.954 67.414 17.289 96.148 25.054 135.43 36.58 199.816 60.332 230.406 74.561a51.679 51.679 0 0 1 29.58 41.074c13.723 121.072 95.17 446.876 95.17 446.876z" class="color081849 svgShape"/><path fill="#00091e" d="M2055.067 2365.634c-5.454 1.4-10.761 2.474-15.515 3.305-10.956 1.888-18.966 2.409-18.966 2.409-141.845-128.414-165.678-398.672-165.678-398.672s-175.56-2.8-310.795-23.247l-122.976-197.733 254.581 57.19s255.33 48.53 274.003 97.808c16.491 43.565 88.806 381.302 105.346 458.94z" opacity=".37" class="color00091e svgShape"/><path fill="#e7e5ea" d="M2183.242 2447.977c4.39-1.393 5.044-1.09 5.863 3.193-.847 1.243-1.753 2.454-2.525 3.737-1.084 1.802-2.67 2.632-4.629 1.63-2.024-1.034-1.896-2.737-.915-4.549.682-1.26 2.216-2.376 1.46-4.013-.891-1.932-4.404-2.031-5.945-.369-1.714 1.847-2.654 5.949-6.274 3.766-3.91-2.358-.132-4.826 1.07-7.142.186-.357.264-.764.391-1.144 3.303-1.608 5.399-1.083 6.006 2.744" class="colore7e5ea svgShape"/><path fill="#ce1406" d="M2137.868 2420.287c1.092 1.129 2.183 2.258 3.276 3.382-.98.95-1.925 1.942-2.954 2.851-1.419 1.253-2.139 2.683-.801 4.251 1.443 1.691 3.211 1.479 4.908.212 1.458-1.089 2.899-2.197 4.348-3.297 1.252.987 2.503 1.973 3.759 2.953-.831.917-1.6 1.902-2.513 2.751-1.694 1.575-2.947 3.372-.851 5.209s3.953.457 5.535-1.135c1.079-1.086 2.178-2.154 3.268-3.23 1.579.898 3.158 1.797 4.73 2.684-1.168 1.456-2.396 2.882-3.471 4.403-.972 1.375-.962 2.841.434 3.969 1.384 1.117 2.963 1.023 4.219-.176 1.585-1.512 2.999-3.184 4.486-4.787 1.832.921 3.664 1.842 5.496 2.759-.127.379-.205.786-.391 1.144-1.202 2.316-4.98 4.784-1.07 7.142 3.62 2.183 4.56-1.919 6.274-3.766 1.542-1.661 5.054-1.563 5.945.369.755 1.638-.778 2.753-1.46 4.013-.981 1.812-1.108 3.515.915 4.549 1.959 1.002 3.545.172 4.629-1.63.772-1.283 1.678-2.494 2.525-3.737 1.654.621 3.307 1.242 4.949 1.852.387 1.528-.952 2.444-1.52 3.627-.881 1.833-.974 3.516 1.131 4.545 1.898.929 3.276.002 4.35-1.534.938-1.342 1.366-3.013 2.882-3.983 1.693.614 3.386 1.227 5.073 1.833.416 1.658-.759 2.875-1.381 4.238-.824 1.806-.859 3.516 1.208 4.451 2.024.916 3.498-.008 4.475-1.821.824-1.531 1.762-3.009 2.649-4.51 1.767.944 73.121 17.522 79.017 34.656-20.471.14-40.945.286-61.418.418-51.213.332-102.427.654-153.64.987-13.275.086-26.549.2-39.824.301-.203-15.841-2.697-88.176-.262-92.119-.002.002-.301.1-.301.1 1.005-.621 2.011-1.243 3.002-1.843.495-.113 1.004-.362 1.514-.366 23.07-.168 46.14-.325 69.21-.439 1.393-.007 2.943.067 4.125.64.743.36-.368.552-.768.711 1.312-1.17 2.624-2.34 3.919-3.501 1.25 1.607 2.425 3.281 3.804 4.789 2.436 2.664 4.106 6.152 8.252 7.054.644.701 1.288 1.402 1.927 2.101-.005-.001.123.063.123.063l-.005-.124c.517.74 1.033 1.479 1.552 2.216-1.111 1.012-2.194 2.06-3.344 3.035-1.659 1.407-2.664 2.967-.882 4.811 1.594 1.649 3.278 1.05 4.889-.186 1.315-1.006 2.703-1.927 4.058-2.885zm-90.164 43.177c2.835 4.28 5.465 8.001 7.798 11.88 1.182 1.965 2.355 2.435 4.782 1.974 14.99-2.843 30.081-5.224 45.021-8.271 8.027-1.637 15.146-.369 21.954 3.515 6.913 3.945 14.12 7.368 21.276 10.891 4.597 2.263 9.469 3.154 14.554 3.478 6.728.428 13.118-1.616 19.694-2.281.908-.092 1.242-.681 1.52-1.243 1.845-3.728 2.489-7.51.226-11.31-1.16-1.948-2.44-2.552-5.182-1.91-8.6 2.013-17.413 3.256-25.853-.587-5.446-2.48-10.873-5.118-15.906-8.256-10.505-6.55-21.971-8.879-34.205-7.047-18.368 2.751-36.652 6.008-55.679 9.167z" class="colorce1406 svgShape"/><path fill="#a30400" d="M2037.056 2496.231c13.275-.101 26.549-.215 39.824-.301 51.213-.333 102.427-.656 153.64-.987 20.474-.133 40.947-.279 61.418-.418 1.049 4.542.8 9.16.515 13.721-.273 4.365-3.717 6.804-9.06 6.877-15.153.207-30.307.401-45.461.51-62.789.453-125.578.878-188.368 1.284-2.004.013-4.075-.045-6.001-.497-3.927-.922-7.017-4.604-6.414-8.152.691-4.068-.232-8.029-.093-12.037z" class="colora30400 svgShape"/><path fill="#e7e5ea" d="M2166.241 2440.327c-1.488 1.603-2.901 3.275-4.486 4.787-1.256 1.198-2.835 1.293-4.219.176-1.396-1.127-1.405-2.594-.434-3.969 1.075-1.521 2.302-2.948 3.471-4.403 3.168-.733 5.153.253 5.668 3.409zM2200.897 2455.677c-1.516.97-1.945 2.642-2.882 3.983-1.073 1.536-2.452 2.463-4.35 1.534-2.105-1.03-2.012-2.712-1.131-4.545.569-1.183 1.907-2.099 1.52-3.627 4.494-2.236 5.637-1.793 6.843 2.655zM2212.921 2459.868c-.887 1.501-1.825 2.979-2.649 4.51-.977 1.814-2.451 2.737-4.475 1.821-2.067-.936-2.032-2.645-1.208-4.451.622-1.363 1.796-2.58 1.381-4.238 3.24-1.607 5.718-1.25 6.951 2.358zM2155.843 2434.234c-1.09 1.076-2.189 2.144-3.268 3.23-1.581 1.592-3.439 2.972-5.535 1.135s-.844-3.635.851-5.209c.913-.849 1.682-1.834 2.513-2.751 3.49-1.051 5.281.175 5.439 3.595zM2137.868 2420.287c-1.355.959-2.743 1.879-4.056 2.886-1.611 1.236-3.295 1.835-4.889.186-1.782-1.844-.777-3.405.882-4.811 1.151-.976 2.233-2.023 3.344-3.035 3.848-.401 5.441 1.172 4.719 4.774zM2146.646 2427.685c-1.449 1.1-2.89 2.208-4.348 3.297-1.697 1.267-3.465 1.479-4.908-.212-1.338-1.568-.618-2.998.801-4.251 1.028-.908 1.973-1.901 2.954-2.851 4.51-.924 5.432-.252 5.501 4.017zM2129.552 2411.256c-4.146-.901-5.816-4.39-8.252-7.054-1.379-1.508-2.553-3.181-3.804-4.789.967-1.458 1.817-3.155 3.345-.352 1.486 2.727 2.95 5.348 6.243 6.852 1.883.86 2.019 3.384 2.468 5.343zM2131.597 2413.297l.005.124s-.128-.064-.123-.063c.005.001-.044-.179-.044-.179l.162.118zM2036.493 2404.212s.299-.098.301-.1l-.301.1z" class="colore7e5ea svgShape"/><path fill="#ffffff" d="M2047.704 2463.464c19.027-3.159 37.311-6.417 55.681-9.168 12.234-1.833 23.7.497 34.205 7.047 5.033 3.138 10.46 5.776 15.906 8.256 8.439 3.843 17.253 2.6 25.853.587 2.741-.642 4.022-.038 5.182 1.91 2.263 3.8 1.619 7.582-.226 11.31-.278.563-.612 1.151-1.52 1.243-6.576.665-12.966 2.708-19.694 2.281-5.085-.323-9.957-1.215-14.554-3.478-7.156-3.522-14.363-6.946-21.276-10.891-6.808-3.884-13.927-5.152-21.954-3.515-14.94 3.047-30.032 5.428-45.021 8.271-2.428.46-3.6-.009-4.782-1.974-2.335-3.878-4.965-7.599-7.8-11.879z" class="colorfff svgShape"/><path fill="#f87b67" d="m1960.17 2381.894 39.569 64.179 70.775-6.858s-45.764-87.931-56.963-109.209c-11.199-21.277-53.381 51.888-53.381 51.888z" class="colorf87b67 svgShape"/><path fill="#0e1c56" d="M2041.522 2376.867c-24.843 20.512-53.967 21.668-68.358 20.675-5.633-.375-9.019-1.074-9.019-1.074-141.845-128.414-154.722-388.237-154.722-388.237s-37.525-.602-91.231-3.256h-.016c-52.03-2.589-119.248-7.098-182.251-14.88-77.573-9.589-148.78-24.11-177.497-46.071-24.045-18.396-35.294-42.132-39.413-66.03-8.954-51.769 15.515-104.19 15.515-104.19s-41.985-29.141 39.625-20.512c23.378 2.474 56.881 8.026 104.401 18.249 31.452 6.772 69.058 15.58 113.925 26.894 29.369 7.407 56.295 14.391 81.008 20.984 142.138 37.932 210.349 62.628 243.088 77.507a55.634 55.634 0 0 1 32.266 44.15c12.373 105.655 73.958 359.731 90.71 427.862 1.269 5.113 1.774 7.18 1.969 7.929z" class="color0e1c56 svgShape"/><path fill="#e7e5ea" d="M2124.833 2463.833c4.39-1.393 5.044-1.089 5.863 3.193-.847 1.243-1.753 2.454-2.525 3.737-1.084 1.802-2.67 2.632-4.629 1.63-2.024-1.035-1.896-2.737-.916-4.549.682-1.26 2.216-2.376 1.46-4.013-.891-1.932-4.404-2.031-5.946-.369-1.714 1.847-2.654 5.949-6.273 3.766-3.91-2.358-.132-4.826 1.07-7.142.186-.357.264-.764.391-1.144 3.303-1.608 5.399-1.082 6.006 2.744" class="colore7e5ea svgShape"/><path fill="#ed442e" d="M2079.458 2436.143c1.092 1.129 2.184 2.258 3.277 3.382-.981.95-1.925 1.942-2.954 2.851-1.419 1.253-2.139 2.683-.801 4.251 1.443 1.691 3.211 1.479 4.908.212 1.458-1.089 2.899-2.197 4.348-3.297 1.252.987 2.504 1.973 3.759 2.953-.831.917-1.6 1.902-2.513 2.751-1.694 1.574-2.947 3.372-.851 5.209 2.096 1.837 3.954.457 5.535-1.135 1.079-1.086 2.178-2.154 3.268-3.23 1.579.898 3.158 1.797 4.73 2.684-1.168 1.456-2.396 2.882-3.471 4.403-.972 1.375-.962 2.841.434 3.969 1.383 1.117 2.963 1.023 4.219-.176 1.585-1.512 2.999-3.184 4.487-4.787 1.832.921 3.664 1.842 5.496 2.759-.127.379-.205.786-.391 1.144-1.202 2.316-4.98 4.784-1.07 7.142 3.62 2.183 4.56-1.919 6.273-3.766 1.542-1.661 5.054-1.563 5.946.369.755 1.638-.778 2.753-1.46 4.013-.981 1.812-1.108 3.515.916 4.549 1.959 1.001 3.545.172 4.629-1.63.772-1.283 1.678-2.494 2.525-3.737 1.654.621 3.307 1.242 4.949 1.852.387 1.528-.951 2.444-1.52 3.627-.881 1.833-.974 3.516 1.131 4.545 1.898.929 3.276.001 4.35-1.534.938-1.341 1.366-3.013 2.882-3.983 1.693.614 3.386 1.227 5.073 1.834.415 1.658-.759 2.875-1.381 4.238-.824 1.806-.859 3.516 1.208 4.451 2.024.916 3.498-.008 4.475-1.821.824-1.531 1.762-3.009 2.649-4.51 1.767.944 73.121 17.522 79.017 34.656-20.471.14-40.945.286-61.418.418-51.213.332-102.427.654-153.64.987-13.275.087-26.549.2-39.824.301-.203-15.841-2.697-88.176-.262-92.119l-.3.1c1.005-.621 2.011-1.243 3.002-1.843.495-.113 1.004-.362 1.514-.366 23.07-.168 46.14-.325 69.21-.439 1.393-.007 2.943.067 4.125.64.743.36-.368.552-.768.711 1.312-1.17 2.624-2.34 3.919-3.501 1.25 1.607 2.425 3.281 3.804 4.789 2.436 2.664 4.106 6.152 8.252 7.054.644.701 1.288 1.402 1.927 2.101-.005-.001.123.063.123.063l-.005-.124c.517.74 1.033 1.479 1.552 2.216-1.111 1.012-2.194 2.06-3.344 3.036-1.659 1.407-2.664 2.967-.882 4.811 1.594 1.649 3.278 1.05 4.889-.186 1.311-1.008 2.7-1.928 4.054-2.887zm-90.163 43.177c2.835 4.28 5.465 8.001 7.798 11.88 1.182 1.965 2.355 2.435 4.782 1.974 14.989-2.843 30.081-5.224 45.021-8.271 8.027-1.637 15.146-.369 21.953 3.515 6.913 3.945 14.12 7.368 21.276 10.891 4.597 2.263 9.469 3.154 14.554 3.477 6.728.428 13.118-1.616 19.694-2.281.908-.092 1.241-.681 1.52-1.243 1.845-3.728 2.489-7.51.226-11.31-1.16-1.948-2.44-2.552-5.182-1.91-8.6 2.013-17.414 3.256-25.853-.587-5.446-2.48-10.873-5.118-15.906-8.256-10.506-6.55-21.971-8.879-34.205-7.047-18.367 2.752-36.651 6.009-55.678 9.168z" class="colored442e svgShape"/><path fill="#c40e00" d="M1978.646 2512.087c13.275-.101 26.549-.214 39.824-.301 51.213-.333 102.427-.656 153.64-.987 20.474-.132 40.947-.278 61.418-.418 1.049 4.542.8 9.16.515 13.721-.273 4.365-3.717 6.804-9.06 6.877-15.153.207-30.307.401-45.461.51-62.789.453-125.578.878-188.368 1.284-2.004.013-4.075-.045-6.001-.497-3.927-.922-7.017-4.604-6.414-8.152.691-4.067-.232-8.029-.093-12.037z" class="colorc40e00 svgShape"/><path fill="#e7e5ea" d="M2107.832 2456.183c-1.488 1.603-2.901 3.275-4.487 4.787-1.256 1.198-2.835 1.293-4.219.176-1.396-1.127-1.405-2.594-.434-3.969 1.075-1.521 2.302-2.948 3.471-4.403 3.168-.733 5.154.254 5.669 3.409zM2142.487 2471.533c-1.516.97-1.945 2.642-2.882 3.983-1.073 1.536-2.451 2.463-4.35 1.534-2.105-1.03-2.012-2.712-1.131-4.545.569-1.183 1.907-2.099 1.52-3.627 4.494-2.235 5.638-1.793 6.843 2.655zM2154.512 2475.725c-.887 1.501-1.825 2.979-2.649 4.51-.977 1.814-2.451 2.738-4.475 1.821-2.067-.936-2.032-2.645-1.208-4.451.622-1.363 1.796-2.58 1.381-4.238 3.239-1.608 5.717-1.251 6.951 2.358zM2097.434 2450.09c-1.09 1.076-2.189 2.144-3.268 3.23-1.581 1.592-3.438 2.972-5.535 1.135-2.096-1.837-.844-3.635.851-5.209.913-.849 1.682-1.834 2.513-2.751 3.489-1.05 5.281.176 5.439 3.595zM2079.458 2436.143c-1.355.959-2.743 1.879-4.056 2.886-1.611 1.236-3.295 1.835-4.889.186-1.782-1.844-.778-3.404.882-4.811 1.151-.976 2.233-2.024 3.344-3.036 3.848-.4 5.441 1.174 4.719 4.775zM2088.236 2443.542c-1.448 1.1-2.89 2.208-4.348 3.297-1.697 1.267-3.465 1.479-4.908-.212-1.338-1.568-.618-2.998.801-4.251 1.028-.908 1.973-1.901 2.954-2.851 4.51-.925 5.433-.253 5.501 4.017zM2071.143 2427.112c-4.146-.901-5.816-4.39-8.252-7.054-1.379-1.508-2.553-3.181-3.804-4.789.967-1.458 1.818-3.155 3.345-.352 1.486 2.728 2.95 5.348 6.243 6.852 1.882.86 2.018 3.385 2.468 5.343zM2073.188 2429.153l.005.124s-.128-.064-.123-.063-.044-.179-.044-.179l.162.118zM1978.084 2420.068s.299-.098.3-.1l-.3.1z" class="colore7e5ea svgShape"/><path fill="#ffffff" d="M1989.295 2479.32c19.027-3.159 37.311-6.417 55.681-9.168 12.234-1.833 23.699.496 34.205 7.047 5.033 3.138 10.46 5.776 15.906 8.256 8.439 3.843 17.253 2.6 25.853.587 2.741-.642 4.022-.038 5.182 1.91 2.263 3.8 1.619 7.582-.226 11.31-.278.563-.612 1.152-1.52 1.243-6.576.665-12.967 2.708-19.694 2.281-5.085-.323-9.957-1.215-14.554-3.477-7.156-3.522-14.363-6.946-21.276-10.891-6.808-3.885-13.927-5.152-21.953-3.515-14.94 3.047-30.032 5.428-45.021 8.271-2.428.46-3.6-.009-4.782-1.974-2.336-3.879-4.967-7.599-7.801-11.88z" class="colorfff svgShape"/><path fill="#f87b67" d="m1879.295 1302.052-.016.016c-.44 1.644-1.612 3.012-3.858 4.379-12.307 7.456-30.231 0-30.231 0s-.049.147-.13.44c-1.709 5.812-20.74 67.756-50.63 57.793-11.282-3.761-22.954-10.224-33.764-16.443-19.226-11.07-35.701-21.343-42.392-14.18-6.024 6.447-20.952 40.13-32.527 67.544-8.531 20.187-15.254 36.987-15.254 36.987s-101.536-91.834-80.633-109.009c1.905-1.563 4.2-3.109 6.805-4.688 8.14-4.868 19.34-9.833 31.143-15.303 21.343-9.914 50.255-21.88 57.451-38.094 1.579-3.565 2.116-7.342 1.286-11.347-13.235-63.849 78.289-109.774 94.878-117.539 1.644-.765 2.556-1.156 2.556-1.156l2.719.309 84.638 9.393s4.754 12.519 7 33.048c1.661 14.928 2.002 34.106-1.774 55.79-7.328 42.052 4.752 54.75 2.733 62.06z" class="colorf87b67 svgShape"/><path fill="#e54f48" d="M1878.335 1184.204c-18.054-10.37-77.621-39.315-105.932 10.989 0 0-14.18 18.673-18.282 47.048 0 0-7.473-20.536-29.871-19.043-17.738 1.182-20.335 50.382-34.612 52.059-1.726.212-3.191-1.172-4.379-3.761 1.579-3.565 2.116-7.342 1.286-11.347-13.235-63.849 78.289-109.774 94.878-117.539 1.758-.277 3.516-.57 5.275-.847l84.638 9.393c-.002 0 4.752 12.519 6.999 33.048zM1760.666 1348.221v.016c-19.226-11.07-35.701-21.343-42.392-14.18-6.024 6.447-20.952 40.13-32.527 67.544-25.38-5.519-76.156-23.15-89.082-76.71 8.14-4.868 19.34-9.833 31.143-15.303-.025 6.549.625 16.552 2.953 26.907 4.572 20.341 13.617 29.025 29.46 27.058 17.49-2.171 36.613-46.554 35.653-50.14-.001.002 59.908 15.875 64.792 34.808z" opacity=".64" class="colore54f48 svgShape"/><path fill="#e54f48" d="M1696.871 1375.843s-31.18 11.727-54.659-9.675-21.509-53.3-21.509-53.3l-30.844 16.713s44.533 77.916 76.655 72.021c32.121-5.895 22.982-16.844 22.982-16.844l7.375-8.915z" class="colore54f48 svgShape"/><path fill="#1f2a83" d="M1889.991 1179.89c-32.104-28.734-74.658-30.606-106.388-15.303-31.729 15.303-29.482 77.654-29.482 77.654s-5.242-1.123-11.2-17.549c-5.975-16.426-18.673-10.451-18.673-10.451-17.37 6.219-22.499 23.784-24.013 33.943-1.091 7.391-3.321 14.603-6.935 21.147-12.161 22.043-21.278 14.815-21.278 14.815s-5.682-24.078-11.803-51.932c-2.881-13.203-5.877-27.252-8.384-39.999-7.847-39.576 26.129-81.007 81.447-98.183 13.838-4.298 26.194-5.16 37.345-3.972 33.357 3.532 55.807 25.364 74.561 27.87 25.022 3.354 79.51-12.698 106.387 5.226 2.051 1.367 3.614 3.028 4.754 4.916 13.66 22.758-36.693 78.37-66.338 51.818z" class="color1f2a83 svgShape"/><path fill="#051956" d="M1889.991 1179.89c-32.104-28.734-74.658-30.606-106.388-15.303-31.729 15.303-29.482 77.654-29.482 77.654s-5.242-1.123-11.2-17.549c-5.975-16.426-18.673-10.451-18.673-10.451-17.37 6.219-22.499 23.784-24.013 33.943-1.091 7.391-3.321 14.603-6.935 21.147-12.161 22.043-21.278 14.815-21.278 14.815s-5.682-24.078-11.803-51.932c25.754-4.379 70.458-17.484 93.527-56.425 33.585-56.734 104.092-26.129 139.972-7.098 35.88 19.047 62.612-40.618 62.612-40.618 13.659 22.757-36.694 78.369-66.339 51.817z" class="color051956 svgShape"/><path fill="#e54f48" d="M1879.279 1302.068c-.44 1.644-1.612 3.012-3.858 4.379-12.307 7.456-30.231 0-30.231 0s-.049.147-.13.44l-5.34-4.835c28.017 6.17 39.103.261 39.559.016z" opacity=".64" class="colore54f48 svgShape"/><path fill="#f99911" d="M1695.197 1379.635s7.401 26.102 14.121 100.014c6.719 73.912 11.332 121.693 23.957 120.946 12.625-.747 120.369-5.955 126.224.009v50.759s-193.483 22.397-212.894-11.945c-19.411-34.344 30.739-261.248 48.592-259.783z" class="colorf99911 svgShape"/><path fill="#ed8100" d="M1686.612 1425.035s-6.41 164.902 15.241 172.844c21.651 7.942 117.186 20.458 122.439 32.579 5.253 12.12 5.226 28.08 5.226 28.08s-120.703-4.936-149.941-25.094c-29.239-20.157 7.035-208.409 7.035-208.409z" class="colored8100 svgShape"/><path fill="#f87b67" d="M2000.052 1660.099h-42.396l-24.041-10.017s-35.337 35.461-60.765 34.998c-25.443-.478-40.053-7.074-62.198-6.134-2.974.123-5.24-.385-6.935-1.387-10.957-6.395 1.757-32.532 1.757-32.532s51.349 4.223 90.462-27.801c0 0 26.106-29.866 43.212-22.238 17.091 7.628 51.488 32.132 60.904 41.563 9.431 9.416 0 23.548 0 23.548z" class="colorf87b67 svgShape"/><path fill="#e54f48" d="M1984.771 1660.318h-25.592l-25.396-10.582s-35.58 37.441-64.448 35.348c-26.812-1.944-40.066-6.594-63.459-5.601-3.142.13-7.523.338-9.314-.721 2.507-4.184 10.826-9.344 37.801-4.998 41.822 6.707 79.526-17.924 92.957-29.499 9.963-8.594 41.725 7.279 57.451 16.053z" opacity=".64" class="colore54f48 svgShape"/><path fill="#00091e" d="M1848.185 2030.631c-4.477-50.027-23.899-42.555-23.899-42.555-116.419 16.315-305.361-26.494-307.918-27.076-14.616-5.324-28.329-10.998-40.73-16.978-69.465-33.455-15.181-77.147 12.692-87.101 85.342-30.479 138.468-17.592 185.158-37.502 39.152-16.719 60.625-31.485 60.625-31.485-28.734-7.766-60.658-16.101-96.148-25.054-349.41-88.089-257.951-24.631-257.951-24.631s-2.637 5.633-5.861 15.042c-81.61-8.628-39.625 20.512-39.625 20.512s-52.258 111.988 23.898 170.22c28.715 21.961 99.929 36.486 177.493 46.065l.004.006c.641.079 1.287.153 1.929.231 2.974.364 5.954.723 8.943 1.072 1.011.118 2.025.233 3.038.35 2.628.302 5.26.599 7.895.891 1.044.115 2.087.232 3.132.346 2.959.322 5.922.636 8.886.945 1.071.112 2.14.224 3.211.334a2044.465 2044.465 0 0 0 12.332 1.229c3.122.302 6.241.598 9.357.887l2.627.24c3.313.303 6.623.6 9.922.888l1.382.119c3.32.288 6.631.567 9.932.84l1.28.107c3.544.291 7.071.572 10.584.846l1.341.105c3.559.276 7.098.543 10.616.803l.972.071c3.671.269 7.318.53 10.937.782l.042.003a3203.9 3203.9 0 0 0 53.937 3.282l.081.004c3.344.176 6.642.345 9.873.505h.016c53.707 2.654 91.231 3.256 91.231 3.256s12.877 259.823 154.722 388.237c0 0 3.386.7 9.019 1.074-56.422-51.947-120.498-316.898-124.975-366.91z" opacity=".29" class="color00091e svgShape"/><path fill="#00091e" d="M1612.716 1809.749s-181.127 29.759-228.159 26.015c-30.117-2.393-52.99 23.378-65.542 42.229-8.954-51.769 15.515-104.19 15.515-104.19s-41.985-29.141 39.625-20.512c23.378 2.474 56.881 8.026 104.401 18.249l134.16 38.209z" opacity=".37" class="color00091e svgShape"/><path fill="#ffb100" d="M1692.893 1690.191c-8.205 15.677 22.401 88.838 22.401 88.838-83.531 42.75-223.861 43.792-308.141 34.741h-.032c-11.38-1.221-21.733-2.621-30.785-4.135-76.14-12.682-67.935-65.705-67.935-65.705 21.652-272.489 109.009-388.953 203.821-418.827 94.813-29.857 105.199-10.712 105.199-10.712 5.161 89.326 75.896 69.547 75.896 69.547-13.773 49.881-14.652 220.394-14.652 220.394s34.383 3.728 71.712 8.954c37.329 5.226 67.202 20.903 67.202 20.903l6.707 56.002h-131.393z" class="colorffb100 svgShape"/><path fill="#f99911" d="M1692.893 1690.191c-8.205 15.677 22.401 88.838 22.401 88.838-83.531 42.75-223.861 43.792-308.141 34.741 82.326-15.286 50.939-175.299 50.939-175.299l36.906 14.618a337.06 337.06 0 0 0 114.752 23.554l213.625 5.939.911 7.61h-131.393zM1524.92 1384.834s1.14 0 2.979.749a77.852 77.852 0 0 0-2.979-.749zM1679.577 1551.326l-.749 43.727-.163 9.279-106.713-8.97s-11.949-31.355-15.677-120.942c-1.237-29.613-5.079-49.441-9.67-62.709l-.016-.016c-6.447-18.64-14.391-24.338-18.64-26.096 19.438 5.486 21.229 17.566 59.079 101.52 39.705 88.089 92.549 64.207 92.549 64.207z" opacity=".52" class="colorf99911 svgShape"/><path fill="#f99911" d="M1571.947 1595.369s-19.909-2.24-32.352 2.24c-12.443 4.479 22.911-48.145 23.117-46.678.206 1.467 5.751 37.221 9.235 44.438z" opacity=".52" class="colorf99911 svgShape"/><path fill="#ed8100" d="M1442.042 1480.644s24.886 207.052 60.722 209.541h19.909v39.818s-48.901 9.421-64.579-91.536-16.052-157.823-16.052-157.823z" opacity=".58" class="colored8100 svgShape"/><path fill="#ed8100" d="m1678.828 1595.053-.163 9.279-106.713-8.97s-11.949-31.355-15.677-120.942c-1.237-29.613-5.079-49.441-9.67-62.709.537.684 18.054 23.638 29.824 148.568 0 0-1.368 25.543 25.819 29.938 18.624 3.029 55.318 4.315 76.58 4.836z" class="colored8100 svgShape"/><path fill="#141a33" fill-rule="evenodd" d="M2331.454 1687.177h-406.989c-7.105 0-12.923-5.817-12.923-12.928 0-7.11 5.818-12.923 12.923-12.923h406.989c7.108 0 12.926 5.813 12.926 12.923-.001 7.111-5.818 12.928-12.926 12.928z" clip-rule="evenodd" class="color141a33 svgShape"/><path fill="#030822" fill-rule="evenodd" d="M2331.454 1687.177h-406.989c-4.605 0-8.669-2.445-10.959-6.098 2.29-3.648 6.354-6.089 10.959-6.089h406.989c4.605 0 8.667 2.44 10.959 6.089-2.293 3.653-6.354 6.098-10.959 6.098zM2341.503 1661.326h-325.527c-9.3 0-15.97-7.612-14.827-16.912l25.947-210.85c1.147-9.301 9.692-16.91 18.997-16.91h325.522c9.3 0 15.973 7.609 14.83 16.91l-25.95 210.85c-1.145 9.3-9.691 16.912-18.992 16.912z" clip-rule="evenodd" class="color030822 svgShape"/><path fill="#0e1c56" fill-rule="evenodd" d="M2341.503 1661.326h-315.921c-9.301 0-15.975-7.612-14.828-16.912l25.948-210.85c1.142-9.301 9.691-16.91 18.991-16.91h315.921c9.3 0 15.973 7.609 14.83 16.91l-25.95 210.85c-1.144 9.3-9.69 16.912-18.991 16.912z" clip-rule="evenodd" class="color0e1c56 svgShape"/><path fill="#ffffff" fill-rule="evenodd" d="M2324.288 1661.326h-32.509l-256.6-215.397 1.524-12.365c.456-3.695 2.074-7.123 4.45-9.909l283.135 237.671zm-246.215-244.672 279.912 234.965c1.31-2.19 2.195-4.63 2.51-7.206l4.037-32.788-232.274-194.972h-54.185z" clip-rule="evenodd" opacity=".26" class="colorfff svgShape"/><path fill="#0e1c56" fill-rule="evenodd" d="M1998.428 1687.177h-73.963c-7.105 0-12.923-5.817-12.923-12.928 0-7.11 5.818-12.923 12.923-12.923h73.963c7.11 0 12.928 5.813 12.928 12.923 0 7.111-5.818 12.928-12.928 12.928z" clip-rule="evenodd" class="color0e1c56 svgShape"/><path fill="#00000f" fill-rule="evenodd" d="M2337.915 1667.784h-338.666c-3.552 0-6.459-2.906-6.459-6.459v-.005c0-3.553 2.907-6.459 6.459-6.459h338.666c3.555 0 6.464 2.906 6.464 6.459v.005c0 3.553-2.909 6.459-6.464 6.459z" clip-rule="evenodd" class="color00000f svgShape"/><path fill="#ffffff" fill-rule="evenodd" d="M2205.258 1506.489c-17.949 0-33.99 14.55-35.829 32.499-1.839 17.95 11.22 32.499 29.167 32.499 17.949 0 33.992-14.549 35.831-32.499 1.84-17.949-11.219-32.499-29.169-32.499z" clip-rule="evenodd" class="colorfff svgShape"/><path fill="#000e3a" d="M1564.939 2524.102h-43.257l183.736-784.313h61.312zM3099.917 2524.102h43.254l-183.727-784.313h-61.309z" class="color000e3a svgShape"/><path fill="#daebff" d="M1521.685 1690.703h1621.486v50.723H1521.685z" class="colordaebff svgShape"/><path fill="#9e9e9e" d="M1521.685 1725.543h1621.486v15.882H1521.685z" opacity=".5" class="color9e9e9e svgShape"/><g opacity=".49" fill="#000000" class="color000 svgShape"><path fill="#6f79c9" d="M1553.158 1140.827c-25.073-22.342-63.509-20.128-85.851 4.945s-20.128 63.51 4.945 85.851c25.073 22.342 63.509 20.128 85.851-4.945a60.603 60.603 0 0 0 12.033-20.453l17.999 6.106 6.709-7.529-21.337-19.013c-.125-16.586-6.991-33.058-20.349-44.962z" class="color6f79c9 svgShape"/><path fill="#0e1c56" d="M1546.449 1148.356c-25.073-22.342-63.509-20.128-85.851 4.945s-20.128 63.509 4.945 85.851 63.509 20.128 85.851-4.945a60.607 60.607 0 0 0 12.033-20.454l24.708-1.423-21.337-19.013c-.124-16.585-6.991-33.057-20.349-44.961z" class="color0e1c56 svgShape"/><path fill="#ffffff" d="M1481.026 1224.995c-2.303 0-4.489-.224-6.557-.672v-9.819c.682.128 1.407.272 2.175.432s1.599.24 2.495.24c2.09 0 3.582-.629 4.478-1.887.896-1.258 1.343-3.412 1.343-6.461v-43.276h12.698v42.188c0 6.333-1.386 11.125-4.158 14.377s-6.93 4.878-12.474 4.878zM1535.017 1199.183c0 3.881-1.322 6.813-3.966 8.796-2.644 1.983-6.44 2.975-11.387 2.975-2.687 0-5.022-.144-7.005-.432-1.983-.288-4.009-.816-6.077-1.583v-10.011c1.94.853 4.068 1.557 6.381 2.111 2.314.554 4.377.832 6.189.832 2.708 0 4.062-.618 4.062-1.855 0-.64-.378-1.21-1.135-1.711-.757-.501-2.959-1.477-6.605-2.927-3.326-1.365-5.651-2.916-6.973-4.654s-1.983-3.94-1.983-6.605c0-3.369 1.301-5.992 3.902-7.868 2.601-1.876 6.28-2.815 11.035-2.815 2.388 0 4.632.261 6.733.784 2.1.522 4.281 1.285 6.541 2.287l-3.39 8.06a38.037 38.037 0 0 0-5.278-1.903c-1.855-.522-3.369-.784-4.542-.784-2.047 0-3.07.501-3.07 1.503 0 .619.357 1.146 1.071 1.583.714.437 2.777 1.327 6.189 2.671 2.538 1.045 4.43 2.068 5.677 3.071 1.248 1.002 2.164 2.18 2.751 3.534.587 1.353.88 3 .88 4.941z" class="colorfff svgShape"/></g><path fill="#009945" d="M1893.124 950.043h-79.061c-6.192 0-11.211 5.02-11.211 11.211v47.341c0 6.192 5.02 11.211 11.211 11.211l-4.819 22.277h8.459l24.083-22.277h51.338c6.192 0 11.212-5.02 11.212-11.211v-47.341c0-6.191-5.02-11.211-11.212-11.211z" class="color009945 svgShape"/><path fill="#00d569" d="M1884.666 950.043h-79.061c-6.192 0-11.211 5.02-11.211 11.211v47.341c0 6.192 5.02 11.211 11.211 11.211h3.64v22.277l24.083-22.277h51.338c6.192 0 11.211-5.02 11.211-11.211v-47.341c0-6.191-5.02-11.211-11.211-11.211z" class="color00d569 svgShape"/><path fill="#ffffff" d="M1827.431 997.439h-3.53v-9.692h-9.913v9.692h-3.515v-21.502h3.515v8.795h9.913v-8.795h3.53v21.502zM1840.52 997.439h-3.515v-18.487h-6.324v-3.015h16.163v3.015h-6.324v18.487zM1859.433 997.439l-6.236-17.958h-.118c.166 2.667.25 5.167.25 7.501v10.457h-3.192v-21.502h4.956l5.971 17.104h.088l6.148-17.104h4.971v21.502h-3.383v-10.633c0-1.069.026-2.461.081-4.177.053-1.716.1-2.755.14-3.118h-.118l-6.457 17.928h-3.101zM1877.935 997.439v-21.502h3.515v18.487h9.104v3.015h-12.619z" class="colorfff svgShape"/><g opacity=".65" fill="#000000" class="color000 svgShape"><path fill="#c12a1f" d="M1767.747 934.662c0-26.724-21.664-48.387-48.387-48.387s-48.387 21.664-48.387 48.387c0 24.632 18.41 44.95 42.217 47.982l6.499 20.66h7.548l6.512-22.431c19.697-6.126 33.998-24.498 33.998-46.211z" class="colorc12a1f svgShape"/><path fill="#ed442e" d="M1760.199 934.662c0-26.724-21.664-48.387-48.387-48.387-26.724 0-48.387 21.664-48.387 48.387 0 24.632 18.409 44.95 42.217 47.982l14.047 20.66 6.512-22.431c19.697-6.126 33.998-24.498 33.998-46.211z" class="colored442e svgShape"/><path fill="#ffffff" d="M1699.546 928.324c0 2.837-.837 5.028-2.51 6.574-1.673 1.546-4.05 2.318-7.13 2.318h-1.928v8.424h-6.86v-25.392h8.788c3.208 0 5.616.701 7.225 2.102 1.61 1.4 2.415 3.392 2.415 5.974zm-11.567 3.3h1.251c1.031 0 1.85-.289 2.458-.869.608-.579.912-1.378.912-2.397 0-1.714-.949-2.57-2.848-2.57h-1.772v5.836zM1725.354 945.64h-6.895v-10.351h-7.972v10.351h-6.895v-25.392h6.895v9.413h7.972v-9.413h6.895v25.392zM1749.27 928.324c0 2.837-.836 5.028-2.51 6.574-1.673 1.546-4.05 2.318-7.13 2.318h-1.928v8.424h-6.86v-25.392h8.788c3.207 0 5.616.701 7.225 2.102 1.61 1.4 2.415 3.392 2.415 5.974zm-11.567 3.3h1.25c1.031 0 1.85-.289 2.458-.869.608-.579.912-1.378.912-2.397 0-1.714-.949-2.57-2.848-2.57h-1.772v5.836z" class="colorfff svgShape"/></g><path fill="#0e1c56" d="M1627.174 937.303c-31.713-27.938-80.069-24.879-108.008 6.834-27.938 31.713-24.879 80.069 6.834 108.008 29.23 25.751 72.588 25.146 101.077.064l31.311 13.887 7.891-8.957-19.81-31.178c13.323-29.779 6.472-65.958-19.295-88.658z" class="color0e1c56 svgShape"/><path fill="#1b65f8" d="M1619.283 946.261c-31.713-27.938-80.069-24.878-108.008 6.834-27.938 31.713-24.878 80.07 6.834 108.008 29.23 25.751 72.588 25.147 101.077.064l39.203 4.93-19.81-31.178c13.322-29.78 6.471-65.958-19.296-88.658z" class="color1b65f8 svgShape"/><path fill="#ffffff" d="M1538.811 993.441c-2.876 0-5.119 1.178-6.731 3.534-1.611 2.356-2.417 5.604-2.417 9.744 0 8.607 3.274 12.911 9.821 12.911 1.978 0 3.896-.275 5.752-.826a57.44 57.44 0 0 0 5.599-1.989v10.218c-3.732 1.652-7.954 2.478-12.666 2.478-6.751 0-11.927-1.958-15.526-5.874-3.6-3.916-5.4-9.576-5.4-16.98 0-4.63.872-8.699 2.616-12.207 1.744-3.508 4.253-6.206 7.526-8.092 3.274-1.887 7.123-2.83 11.549-2.83 4.834 0 9.453 1.05 13.859 3.151l-3.702 9.515a41.575 41.575 0 0 0-4.956-1.958c-1.653-.53-3.427-.795-5.324-.795zM1568.303 1010.91h-11.381v-8.199h11.381v-11.228h8.23v11.228h11.381v8.199h-11.381v11.044h-8.23v-11.044zM1603.761 1010.91h-11.381v-8.199h11.381v-11.228h8.23v11.228h11.381v8.199h-11.381v11.044h-8.23v-11.044z" class="colorfff svgShape"/><path fill="#00d569" fill-rule="evenodd" d="M2728.257 1657.909h-108.342c-4.458 0-8.507 1.825-11.442 4.756-2.93 2.934-4.756 6.983-4.756 11.437 0 4.459 1.825 8.507 4.756 11.442 2.935 2.934 6.983 4.755 11.442 4.755h108.342c4.454 0 8.507-1.821 11.437-4.755 2.935-2.935 4.76-6.983 4.76-11.442 0-4.454-1.825-8.503-4.76-11.437-2.93-2.93-6.982-4.756-11.437-4.756z" clip-rule="evenodd" class="color00d569 svgShape"/><path fill="#ffffff" fill-rule="evenodd" d="M2485.91 1659.797h138.552c7.867 0 14.306 6.439 14.306 14.305 0 7.871-6.439 14.309-14.306 14.309H2485.91v-28.614z" clip-rule="evenodd" class="colorfff svgShape"/><path fill="#7df9b2" fill-rule="evenodd" d="M2485.91 1657.909a1.888 1.888 0 0 0-1.888 1.888c0 1.043.845 1.884 1.888 1.884h138.552c3.412 0 6.519 1.398 8.771 3.65 2.252 2.252 3.651 5.359 3.651 8.771 0 3.416-1.398 6.523-3.651 8.775-2.252 2.248-5.359 3.651-8.771 3.651H2485.91a1.885 1.885 0 1 0 0 3.772h138.552c4.455 0 8.503-1.821 11.438-4.755 2.935-2.935 4.756-6.983 4.756-11.442 0-4.454-1.821-8.503-4.756-11.437-2.935-2.93-6.983-4.756-11.438-4.756H2485.91zM2723.267 1674.102c0-4.454-1.821-8.503-4.756-11.437-2.935-2.93-6.983-4.756-11.438-4.756h14.083c4.458 0 8.507 1.825 11.441 4.756 2.931 2.934 4.756 6.983 4.756 11.437 0 4.459-1.825 8.507-4.756 11.442-2.934 2.934-6.983 4.755-11.441 4.755h-14.083c4.455 0 8.503-1.821 11.438-4.755 2.935-2.935 4.756-6.983 4.756-11.442z" clip-rule="evenodd" class="color7df9b2 svgShape"/><path fill="#7df9b2" fill-rule="evenodd" d="M2702.858 1674.102c0-4.454-1.821-8.503-4.756-11.437-2.931-2.93-6.979-4.756-11.438-4.756h14.087c4.454 0 8.503 1.825 11.438 4.756 2.935 2.934 4.756 6.983 4.756 11.437 0 4.459-1.821 8.507-4.756 11.442-2.935 2.934-6.983 4.755-11.438 4.755h-14.087c4.458 0 8.507-1.821 11.438-4.755 2.935-2.935 4.756-6.983 4.756-11.442z" clip-rule="evenodd" class="color7df9b2 svgShape"/><path fill="#1b65f8" fill-rule="evenodd" d="M2514.395 1629.55h94.87c3.902 0 7.448 1.595 10.018 4.161 2.57 2.571 4.166 6.117 4.166 10.019s-1.595 7.448-4.166 10.018c-2.571 2.566-6.116 4.161-10.018 4.161h-94.87a14.137 14.137 0 0 1-10.014-4.161c-2.57-2.571-4.166-6.117-4.166-10.018 0-3.902 1.595-7.448 4.166-10.019a14.137 14.137 0 0 1 10.014-4.161z" clip-rule="evenodd" class="color1b65f8 svgShape"/><path fill="#ffffff" fill-rule="evenodd" d="M2726.608 1631.202h-121.324c-6.891 0-12.526 5.637-12.526 12.528 0 6.891 5.635 12.53 12.526 12.53h121.324v-25.058z" clip-rule="evenodd" class="colorfff svgShape"/><path fill="#6e9eea" fill-rule="evenodd" d="M2726.608 1629.55c.913 0 1.649.739 1.649 1.652a1.65 1.65 0 0 1-1.649 1.651h-121.324a10.843 10.843 0 0 0-7.682 3.198 10.846 10.846 0 0 0-3.194 7.678c0 2.989 1.226 5.71 3.194 7.682a10.852 10.852 0 0 0 7.682 3.194h121.324a1.65 1.65 0 0 1 1.649 1.653c0 .913-.737 1.65-1.649 1.65h-121.324c-3.898 0-7.444-1.595-10.014-4.161-2.571-2.571-4.17-6.117-4.17-10.018 0-3.902 1.599-7.448 4.17-10.019 2.57-2.566 6.116-4.161 10.014-4.161h121.324zM2518.761 1643.73c0-3.902 1.599-7.448 4.166-10.019 2.571-2.566 6.116-4.161 10.018-4.161h-12.334c-3.906 0-7.448 1.595-10.018 4.161-2.571 2.571-4.166 6.117-4.166 10.019s1.595 7.448 4.166 10.018c2.57 2.566 6.112 4.161 10.018 4.161h12.334c-3.902 0-7.448-1.595-10.018-4.161-2.567-2.571-4.166-6.117-4.166-10.018z" clip-rule="evenodd" class="color6e9eea svgShape"/><path fill="#6e9eea" fill-rule="evenodd" d="M2536.633 1643.73c0-3.902 1.599-7.448 4.166-10.019a14.145 14.145 0 0 1 10.014-4.161h-12.333c-3.902 0-7.448 1.595-10.018 4.161-2.566 2.571-4.161 6.117-4.161 10.019s1.595 7.448 4.161 10.018c2.571 2.566 6.116 4.161 10.018 4.161h12.333a14.144 14.144 0 0 1-10.014-4.161c-2.566-2.571-4.166-6.117-4.166-10.018z" clip-rule="evenodd" class="color6e9eea svgShape"/><path fill="#0e1c56" fill-rule="evenodd" d="M2689.763 1601.188h-70.555a14.139 14.139 0 0 0-10.019 4.164c-2.57 2.57-4.165 6.117-4.165 10.018 0 3.9 1.595 7.446 4.165 10.014 2.571 2.568 6.117 4.165 10.019 4.165h70.555c3.902 0 7.448-1.597 10.014-4.165 2.57-2.569 4.166-6.115 4.166-10.014 0-3.902-1.595-7.448-4.166-10.018a14.122 14.122 0 0 0-10.014-4.164z" clip-rule="evenodd" class="color0e1c56 svgShape"/><path fill="#ffffff" fill-rule="evenodd" d="M2538.48 1602.84h84.709c6.891 0 12.53 5.637 12.53 12.53 0 6.889-5.639 12.528-12.53 12.528h-84.709v-25.058z" clip-rule="evenodd" class="colorfff svgShape"/><path fill="#576fbc" fill-rule="evenodd" d="M2538.48 1601.188c-.913 0-1.65.739-1.65 1.652s.737 1.651 1.65 1.651h84.709c2.989 0 5.706 1.225 7.682 3.196a10.863 10.863 0 0 1 3.194 7.682c0 2.989-1.227 5.708-3.194 7.68-1.976 1.97-4.693 3.194-7.682 3.194h-84.709c-.913 0-1.65.741-1.65 1.654s.737 1.651 1.65 1.651h84.709c3.902 0 7.444-1.597 10.014-4.165 2.57-2.569 4.17-6.115 4.17-10.014 0-3.902-1.6-7.448-4.17-10.018-2.57-2.571-6.112-4.164-10.014-4.164h-84.709zM2685.392 1615.37c0-3.902-1.595-7.448-4.161-10.018a14.142 14.142 0 0 0-10.018-4.164h12.333c3.902 0 7.448 1.593 10.018 4.164a14.134 14.134 0 0 1 0 20.032c-2.571 2.568-6.117 4.165-10.018 4.165h-12.333c3.898 0 7.448-1.597 10.018-4.165a14.144 14.144 0 0 0 4.161-10.014z" clip-rule="evenodd" class="color576fbc svgShape"/><path fill="#576fbc" fill-rule="evenodd" d="M2667.524 1615.37c0-3.902-1.6-7.448-4.166-10.018a14.129 14.129 0 0 0-10.014-4.164h12.334c3.902 0 7.448 1.593 10.014 4.164 2.57 2.57 4.166 6.117 4.166 10.018 0 3.9-1.595 7.446-4.166 10.014a14.132 14.132 0 0 1-10.014 4.165h-12.334c3.898 0 7.448-1.597 10.014-4.165 2.567-2.568 4.166-6.114 4.166-10.014z" clip-rule="evenodd" class="color576fbc svgShape"/><path fill="#d9ecfa" d="M3602.233 1440.303H2450.625a5.07 5.07 0 0 1-5.07-5.07v-670.64c0-2.8 2.27-5.07 5.07-5.07h1151.608a5.07 5.07 0 0 1 5.069 5.07v670.64c0 2.8-2.27 5.07-5.069 5.07z" class="colord9ecfa svgShape"/><path fill="#006dfe" d="M3574.26 686.112H2478.597c-18.249 0-33.042 14.794-33.042 33.042v88.648h1161.747v-88.648c0-18.248-14.793-33.042-33.042-33.042z" class="color006dfe svgShape"/><path fill="#00e6ff" d="M3574.26 686.112H2478.597c-18.249 0-33.042 14.794-33.042 33.042v1.176c0-18.248 14.793-33.042 33.042-33.042H3574.26c18.249 0 33.042 14.794 33.042 33.042v-1.176c0-18.248-14.793-33.042-33.042-33.042z" opacity=".4" class="color00e6ff svgShape"/><path fill="#0e1c56" d="M3558.685 1400.579H2496.768a4.18 4.18 0 0 1-4.18-4.18V848.55a4.18 4.18 0 0 1 4.18-4.18h1061.917a4.18 4.18 0 0 1 4.18 4.18v547.849a4.18 4.18 0 0 1-4.18 4.18z" class="color0e1c56 svgShape"/><circle cx="2510.75" cy="746.957" r="20.829" fill="#1f2a83" transform="rotate(-80.781 2510.767 746.917)" class="color1f2a83 svgShape"/><circle cx="2606.007" cy="746.957" r="20.829" fill="#ffb100" transform="rotate(-76.714 2606.218 746.938)" class="colorffb100 svgShape"/><circle cx="2701.264" cy="746.957" r="20.829" fill="#45d788" transform="rotate(-80.781 2701.28 746.914)" class="color45d788 svgShape"/><path fill="#00d569" d="M2549.017 932.468a4.351 4.351 0 0 1-3.087-1.279l-25.548-25.546a4.365 4.365 0 0 1 0-6.174l25.574-25.574a4.366 4.366 0 1 1 6.174 6.174l-22.487 22.487 22.461 22.459a4.364 4.364 0 0 1-3.087 7.453zM2613.339 932.468a4.364 4.364 0 0 1-3.087-7.453l22.461-22.459-22.491-22.487a4.364 4.364 0 0 1 0-6.174 4.364 4.364 0 0 1 6.174 0l25.578 25.574c.818.819 1.279 1.929 1.279 3.087s-.461 2.268-1.279 3.087l-25.548 25.546a4.351 4.351 0 0 1-3.087 1.279zM2570.356 936.854a4.343 4.343 0 0 1-1.501-.269 4.365 4.365 0 0 1-2.601-5.598l20.291-55.503a4.368 4.368 0 0 1 8.204 2.997l-20.291 55.503a4.371 4.371 0 0 1-4.102 2.87z" class="color00d569 svgShape"/><circle cx="2666.054" cy="932.936" r="7.213" fill="#00d569" class="color00d569 svgShape"/><circle cx="2695.91" cy="932.936" r="7.213" fill="#00d569" class="color00d569 svgShape"/><circle cx="2725.767" cy="932.936" r="7.213" fill="#00d569" class="color00d569 svgShape"/><path fill="#00d569" d="M3304.964 989.28h-768.709a4.365 4.365 0 0 1-4.366-4.366 4.365 4.365 0 0 1 4.366-4.366h768.709a4.365 4.365 0 0 1 4.366 4.366 4.365 4.365 0 0 1-4.366 4.366zM3410.824 989.28h-59.24a4.365 4.365 0 0 1-4.366-4.366 4.365 4.365 0 0 1 4.366-4.366h59.24a4.365 4.365 0 0 1 4.366 4.366 4.365 4.365 0 0 1-4.366 4.366zM3519.702 989.28h-75.608a4.365 4.365 0 0 1-4.366-4.366 4.365 4.365 0 0 1 4.366-4.366h75.608a4.365 4.365 0 0 1 4.366 4.366 4.365 4.365 0 0 1-4.366 4.366z" class="color00d569 svgShape"/><path fill="#1b65f8" d="M3017.168 1049.769h-480.913a4.365 4.365 0 0 1-4.366-4.366 4.365 4.365 0 0 1 4.366-4.366h480.913a4.365 4.365 0 0 1 4.366 4.366 4.365 4.365 0 0 1-4.366 4.366zM3174.913 1049.769h-86.195a4.365 4.365 0 0 1-4.366-4.366 4.365 4.365 0 0 1 4.366-4.366h86.195a4.365 4.365 0 0 1 4.366 4.366 4.365 4.365 0 0 1-4.366 4.366zM3174.913 1084.551h-234.006a4.365 4.365 0 0 1-4.366-4.366 4.365 4.365 0 0 1 4.366-4.366h234.006a4.365 4.365 0 0 1 4.366 4.366 4.365 4.365 0 0 1-4.366 4.366zM2908.759 1084.551h-47.157a4.365 4.365 0 0 1-4.366-4.366 4.365 4.365 0 0 1 4.366-4.366h47.157a4.365 4.365 0 0 1 4.366 4.366 4.365 4.365 0 0 1-4.366 4.366zM2824.141 1084.551h-47.156a4.365 4.365 0 0 1-4.366-4.366 4.365 4.365 0 0 1 4.366-4.366h47.156a4.365 4.365 0 0 1 4.366 4.366 4.365 4.365 0 0 1-4.366 4.366zM2739.523 1084.551h-47.157a4.365 4.365 0 0 1-4.366-4.366 4.365 4.365 0 0 1 4.366-4.366h47.157a4.365 4.365 0 0 1 4.366 4.366 4.364 4.364 0 0 1-4.366 4.366zM2654.906 1084.551h-47.156a4.365 4.365 0 0 1-4.366-4.366 4.365 4.365 0 0 1 4.366-4.366h47.156a4.365 4.365 0 0 1 4.366 4.366 4.365 4.365 0 0 1-4.366 4.366z" class="color1b65f8 svgShape"/><path fill="#ffb100" d="M3337.006 1126.84h-729.257c-2.413 0-4.366-1.955-4.366-4.366s1.953-4.366 4.366-4.366h729.257c2.413 0 4.366 1.955 4.366 4.366s-1.953 4.366-4.366 4.366z" class="colorffb100 svgShape"/><path fill="#1b65f8" d="M2553.272 1084.551h-17.017a4.365 4.365 0 0 1-4.366-4.366 4.365 4.365 0 0 1 4.366-4.366h17.017a4.365 4.365 0 0 1 4.366 4.366 4.365 4.365 0 0 1-4.366 4.366zM2553.272 1126.84h-17.017c-2.413 0-4.366-1.955-4.366-4.366s1.953-4.366 4.366-4.366h17.017c2.413 0 4.366 1.955 4.366 4.366s-1.953 4.366-4.366 4.366zM2553.272 1169.13h-17.017c-2.413 0-4.366-1.955-4.366-4.366s1.953-4.366 4.366-4.366h17.017c2.413 0 4.366 1.955 4.366 4.366s-1.953 4.366-4.366 4.366zM2553.272 1211.42h-17.017a4.365 4.365 0 0 1-4.366-4.366 4.365 4.365 0 0 1 4.366-4.366h17.017a4.365 4.365 0 0 1 4.366 4.366 4.365 4.365 0 0 1-4.366 4.366z" class="color1b65f8 svgShape"/><path fill="#ffb100" d="M3481.896 1126.84h-100.692c-2.413 0-4.366-1.955-4.366-4.366s1.953-4.366 4.366-4.366h100.692c2.413 0 4.366 1.955 4.366 4.366s-1.953 4.366-4.366 4.366zM2807.785 1169.13h-201.78c-2.413 0-4.366-1.955-4.366-4.366s1.953-4.366 4.366-4.366h201.78c2.413 0 4.366 1.955 4.366 4.366s-1.952 4.366-4.366 4.366zM2807.785 1212.456h-201.78c-2.413 0-4.366-1.955-4.366-4.366s1.953-4.366 4.366-4.366h201.78c2.413 0 4.366 1.955 4.366 4.366s-1.952 4.366-4.366 4.366zM2807.785 1255.781h-201.78a4.365 4.365 0 0 1-4.366-4.366 4.365 4.365 0 0 1 4.366-4.366h201.78a4.365 4.365 0 0 1 4.366 4.366 4.363 4.363 0 0 1-4.366 4.366zM2807.785 1299.107h-201.78a4.365 4.365 0 0 1-4.366-4.366 4.365 4.365 0 0 1 4.366-4.366h201.78a4.365 4.365 0 0 1 4.366 4.366 4.364 4.364 0 0 1-4.366 4.366z" class="colorffb100 svgShape"/><path fill="#ed442e" d="M3351.584 1299.107h-410.677a4.365 4.365 0 0 1-4.366-4.366 4.365 4.365 0 0 1 4.366-4.366h410.677a4.365 4.365 0 0 1 4.366 4.366 4.365 4.365 0 0 1-4.366 4.366zM3351.584 1255.781h-167.206a4.365 4.365 0 0 1-4.366-4.366 4.365 4.365 0 0 1 4.366-4.366h167.206a4.365 4.365 0 0 1 4.366 4.366 4.364 4.364 0 0 1-4.366 4.366zM3351.584 1211.42h-66.382a4.365 4.365 0 0 1-4.366-4.366 4.365 4.365 0 0 1 4.366-4.366h66.382a4.365 4.365 0 0 1 4.366 4.366 4.365 4.365 0 0 1-4.366 4.366z" class="colored442e svgShape"/><path fill="#ed442e" d="M2706.533 1249.145h74.316v7.697h-74.316z" transform="rotate(-45.001 2743.69 1253.031)" class="colored442e svgShape"/><path fill="#ed442e" d="M2815.8 1504.236h303.017v7.697H2815.8z" transform="rotate(-72.668 2967.212 1508.092)" class="colored442e svgShape"/><path fill="#ed442e" d="M2892.555 1153.945h7.697v275.049h-7.697z" transform="rotate(-59.476 2896.595 1291.495)" class="colored442e svgShape"/><path fill="#000e3a" d="m2655.614 1301.067 54.416 40.928 24.583-32.684c5.322-7.075 3.9-17.125-3.175-22.446l-28.794-21.657c-7.075-5.322-17.125-3.9-22.446 3.175l-24.584 32.684z" class="color000e3a svgShape"/><path fill="#ed442e" d="m2562.281 1320.248 155.208 116.738 24.173-32.139c11.879-15.794 8.706-38.228-7.089-50.108l-98.012-73.719c-15.794-11.88-38.229-8.706-50.108 7.089l-24.172 32.139z" class="colored442e svgShape"/><path fill="#000e3a" d="m2909.252 1663.186-.093-7.185c-.09-6.937 5.46-12.633 12.397-12.724 6.937-.09 12.634 5.46 12.724 12.397l.094 7.185c13.236 2.098 23.444 13.446 23.624 27.301l-71.651.931c-.181-13.855 9.728-25.464 22.905-27.905z" class="color000e3a svgShape"/><circle cx="2776.342" cy="1221.602" r="12.046" fill="#000e3a" class="color000e3a svgShape"/><path fill="#000e3a" d="M3000.401 1361.338c0 6.653 5.393 12.046 12.046 12.046s12.046-5.393 12.046-12.046-5.393-12.046-12.046-12.046c-6.652 0-12.046 5.393-12.046 12.046z" class="color000e3a svgShape"/><path fill="#051956" d="M1845.189 1117.929s-63.605 7.863-74.561-27.87c33.358 3.532 55.807 25.363 74.561 27.87z" opacity=".51" class="color051956 svgShape"/><g opacity=".53" fill="#000000" class="color000 svgShape"><path fill="#00d569" d="M3339.801 2288.6s38.926-176.843 115.049-159.156c76.122 17.687-52.685 133.007-115.049 159.156z" class="color00d569 svgShape"/><path fill="#00d569" d="M3349.08 2225.65s8.284-84.496 39.763-155.738c24.003-54.324 67.928-120.945 97.75-96.094 45.979 38.315-1.57 91.484-23.195 119.289-23.194 29.822-57.987 59.644-114.318 132.543zM3310.974 2190.857s-87.81-193.844-87.81-311.476 107.691-72.899 115.975 6.627c8.284 79.526-8.284 235.264-28.165 304.849z" opacity=".46" class="color00d569 svgShape"/><path fill="#00d569" d="M3291.093 2233.934s4.97-137.513-19.882-218.696c-24.852-81.182-91.123-64.615-99.407-29.822s4.97 117.632 119.289 248.518zM3351.273 2127.43s-19.611-136.22-.506-219.807c19.106-83.587 93.988-74.662 106.708-40.998 12.721 33.666 6.593 117.578-106.202 260.805z" class="color00d569 svgShape"/><defs><filter id="d" width="96.436" height="469.172" x="3213.272" y="1904.451" filterUnits="userSpaceOnUse"><feFlood flood-color="#fff" flood-opacity="1" result="back"/><feBlend in="SourceGraphic" in2="back"/></filter></defs><mask id="e" width="96.436" height="469.172" x="3213.272" y="1904.451" maskUnits="userSpaceOnUse"><g filter="url(#d)" fill="#000000" class="color000 svgShape"><path fill="url(#SVGID_5_)" d="m3305.881 2373.623-2.254-.224c.395-11.79.751-23.332 1.077-34.599-1.658-51.42-15.999-160.737-91.334-330.239a1.136 1.136 0 0 1 .576-1.498 1.133 1.133 0 0 1 1.498.576c64.91 146.046 84.635 247.607 89.942 306.074 7.729-303.108-8.844-406.866-9.024-407.941a1.133 1.133 0 0 1 .933-1.305 1.138 1.138 0 0 1 1.306.933c.184 1.106 17.706 110.696 8.367 433.584.724 22.792-1.027 34.278-1.087 34.639z" mask="url(#e)"/></g></mask><linearGradient id="f" x1="3213.272" x2="3309.708" y1="2139.037" y2="2139.037" gradientUnits="userSpaceOnUse"><stop offset="0" stop-color="#f3f6fd" class="stopColorf3f6fd svgShape"/><stop offset=".984" stop-color="#e2eefa" class="stopColore2eefa svgShape"/></linearGradient><path fill="url(#f)" d="m3305.881 2373.623-2.254-.224c.395-11.79.751-23.332 1.077-34.599-1.658-51.42-15.999-160.737-91.334-330.239a1.136 1.136 0 0 1 .576-1.498 1.133 1.133 0 0 1 1.498.576c64.91 146.046 84.635 247.607 89.942 306.074 7.729-303.108-8.844-406.866-9.024-407.941a1.133 1.133 0 0 1 .933-1.305 1.138 1.138 0 0 1 1.306.933c.184 1.106 17.706 110.696 8.367 433.584.724 22.792-1.027 34.278-1.087 34.639z"/><defs><filter id="g" width="107.637" height="174.611" x="3320.165" y="2172.786" filterUnits="userSpaceOnUse"><feFlood flood-color="#fff" flood-opacity="1" result="back"/><feBlend in="SourceGraphic" in2="back"/></filter></defs><mask id="h" width="107.637" height="174.611" x="3320.165" y="2172.786" maskUnits="userSpaceOnUse"><g filter="url(#g)" fill="#000000" class="color000 svgShape"><path fill="url(#SVGID_8_)" d="M3321.302 2347.397a1.135 1.135 0 0 1-1.129-1.275c.093-.76 10.538-77.212 105.689-173.001a1.134 1.134 0 1 1 1.609 1.601c-94.546 95.182-104.95 170.927-105.046 171.68-.071.574-.56.995-1.123.995z" mask="url(#h)"/></g></mask><linearGradient id="i" x1="3320.165" x2="3427.802" y1="2260.092" y2="2260.092" gradientUnits="userSpaceOnUse"><stop offset="0" stop-color="#f3f6fd" class="stopColorf3f6fd svgShape"/><stop offset=".984" stop-color="#e2eefa" class="stopColore2eefa svgShape"/></linearGradient><path fill="url(#i)" d="M3321.302 2347.397a1.135 1.135 0 0 1-1.129-1.275c.093-.76 10.538-77.212 105.689-173.001a1.134 1.134 0 1 1 1.609 1.601c-94.546 95.182-104.95 170.927-105.046 171.68-.071.574-.56.995-1.123.995z"/><path fill="#00d569" d="M3292.617 2281.674s-29.522-178.653-106.474-165.015c-76.951 13.638 45.579 135.606 106.474 165.015z" opacity=".46" class="color00d569 svgShape"/><defs><filter id="j" width="98.379" height="179.939" x="3210.801" y="2161.428" filterUnits="userSpaceOnUse"><feFlood flood-color="#fff" flood-opacity="1" result="back"/><feBlend in="SourceGraphic" in2="back"/></filter></defs><mask id="k" width="98.379" height="179.939" x="3210.801" y="2161.428" maskUnits="userSpaceOnUse"><g filter="url(#j)" fill="#000000" class="color000 svgShape"><path fill="url(#SVGID_11_)" d="M3308.042 2341.368c-.59 0-1.086-.457-1.13-1.055-.053-.758-6.441-76.946-95.823-176.994a1.136 1.136 0 0 1 1.694-1.512c89.951 100.686 96.339 177.581 96.395 178.346a1.136 1.136 0 0 1-1.053 1.212c-.028 0-.054.003-.083.003z" mask="url(#k)"/></g></mask><linearGradient id="l" x1="3210.801" x2="3309.18" y1="2251.398" y2="2251.398" gradientUnits="userSpaceOnUse"><stop offset="0" stop-color="#f3f6fd" class="stopColorf3f6fd svgShape"/><stop offset=".984" stop-color="#e2eefa" class="stopColore2eefa svgShape"/></linearGradient><path fill="url(#l)" d="M3308.042 2341.368c-.59 0-1.086-.457-1.13-1.055-.053-.758-6.441-76.946-95.823-176.994a1.136 1.136 0 0 1 1.694-1.512c89.951 100.686 96.339 177.581 96.395 178.346a1.136 1.136 0 0 1-1.053 1.212c-.028 0-.054.003-.083.003z"/><defs><filter id="m" width="127.805" height="500.082" x="3315.192" y="1906.538" filterUnits="userSpaceOnUse"><feFlood flood-color="#fff" flood-opacity="1" result="back"/><feBlend in="SourceGraphic" in2="back"/></filter></defs><mask id="n" width="127.805" height="500.082" x="3315.192" y="1906.538" maskUnits="userSpaceOnUse"><g filter="url(#m)" fill="#000000" class="color000 svgShape"><path fill="url(#SVGID_14_)" d="M3315.224 2406.619c-.055-1.45-.04-3.338.051-5.637 1.509-123.842 27.323-263.099 91.325-493.611a1.124 1.124 0 0 1 1.396-.789c.603.166.958.791.789 1.396-58.416 210.402-84.99 344.675-90.297 460.578 10.116-75.43 44.846-236.369 122.477-335.791a1.136 1.136 0 0 1 1.791 1.397c-91.757 117.512-123.348 321.237-125.21 366.653-.022 1.922-.042 3.852-.053 5.768l-2.269.036z" mask="url(#n)"/></g></mask><linearGradient id="o" x1="3315.192" x2="3442.997" y1="2156.579" y2="2156.579" gradientUnits="userSpaceOnUse"><stop offset="0" stop-color="#f3f6fd" class="stopColorf3f6fd svgShape"/><stop offset=".984" stop-color="#e2eefa" class="stopColore2eefa svgShape"/></linearGradient><path fill="url(#o)" d="M3315.224 2406.619c-.055-1.45-.04-3.338.051-5.637 1.509-123.842 27.323-263.099 91.325-493.611a1.124 1.124 0 0 1 1.396-.789c.603.166.958.791.789 1.396-58.416 210.402-84.99 344.675-90.297 460.578 10.116-75.43 44.846-236.369 122.477-335.791a1.136 1.136 0 0 1 1.791 1.397c-91.757 117.512-123.348 321.237-125.21 366.653-.022 1.922-.042 3.852-.053 5.768l-2.269.036z"/><path fill="#c7d0e0" d="M3238.562 2449.121c0 9.46 34.92 17.128 77.995 17.128s77.995-7.668 77.995-17.128c0-9.458-34.92-17.127-77.995-17.127s-77.995 7.669-77.995 17.127z" opacity=".64" class="colorc7d0e0 svgShape"/><path fill="#b9d2ea" d="M3372.175 2355.933c0 37.778-9.788 71.105-24.704 90.972h-64.133c-14.915-19.867-24.704-53.194-24.704-90.972 0-9.792.666-19.278 1.899-28.316h109.743a209.639 209.639 0 0 1 1.899 28.316z" class="colorb9d2ea svgShape"/><path fill="#8bb2cc" d="M3372.175 2355.933c0 37.778-9.788 71.105-24.704 90.972h-64.133c-14.915-19.867-24.704-53.194-24.704-90.972 0-9.792.666-19.278 1.899-28.316h109.743a209.639 209.639 0 0 1 1.899 28.316z" opacity=".97" class="color8bb2cc svgShape"/><path fill="#b9d2ea" d="m3243.349 2325.885 142.607-2.608 1.668 26.074-143.441 3.476z" class="colorb9d2ea svgShape"/></g><g opacity=".77" fill="#000000" class="color000 svgShape"><path fill="#daebff" d="M2383.117 223.895h8.535v255.347h-8.535z" class="colordaebff svgShape"/><path fill="#daebff" d="M2364.694 516.244v-39.946c0-13.732 10.219-24.965 22.675-24.965 12.49 0 22.7 11.233 22.7 24.965v39.946h-45.375z" class="colordaebff svgShape"/><path fill="#daebff" d="M2410.07 516.244v-39.946c0-13.732-10.21-24.965-22.7-24.965-1.641 0-3.242.222-4.804.6 29.858 5.613 27.49 53.08 7.109 57.651-20.39 4.582-24.98-11.23-24.98-11.23v17.89h45.375z" opacity=".3" class="colordaebff svgShape"/><path fill="#daebff" d="M2420.534 605.105c0 14.406-14.858 26.084-33.164 26.084-18.281 0-33.139-11.677-33.139-26.084 0-14.402 14.858-26.079 33.139-26.079 18.305 0 33.164 11.677 33.164 26.079z" class="colordaebff svgShape"/><path fill="#daebff" d="M2335.691 612.024v-91.049c0-31.301 23.271-56.911 51.679-56.911 28.437 0 51.704 25.61 51.704 56.911v91.049h-103.383z" class="colordaebff svgShape"/><path fill="#daebff" d="M2439.073 612.024v-91.049c0-31.301-23.267-56.911-51.704-56.911-3.765 0-7.417.51-10.971 1.367 68.046 12.798 62.656 120.99 16.206 131.422-46.469 10.437-56.913-25.608-56.913-25.608v40.779h103.382z" opacity=".3" class="colordaebff svgShape"/><path fill="#daebff" d="M1863.486 223.895h8.533v338.588h-8.533z" class="colordaebff svgShape"/><path fill="#daebff" d="M1845.063 599.485V559.54c0-13.733 10.22-24.966 22.678-24.966 12.485 0 22.7 11.233 22.7 24.966v39.945h-45.378z" class="colordaebff svgShape"/><path fill="#daebff" d="M1890.442 599.485V559.54c0-13.733-10.214-24.966-22.7-24.966-1.646 0-3.247.223-4.804.601 29.855 5.613 27.485 53.08 7.106 57.651-20.388 4.58-24.98-11.23-24.98-11.23v17.89h45.378z" opacity=".3" class="colordaebff svgShape"/><path fill="#daebff" d="M1900.905 688.346c0 14.406-14.858 26.084-33.164 26.084-18.281 0-33.142-11.677-33.142-26.084 0-14.402 14.86-26.079 33.142-26.079 18.306.001 33.164 11.678 33.164 26.079z" class="colordaebff svgShape"/><path fill="#daebff" d="M1816.058 695.265v-91.049c0-31.301 23.274-56.911 51.684-56.911 28.432 0 51.701 25.61 51.701 56.911v91.049h-103.385z" class="colordaebff svgShape"/><path fill="#daebff" d="M1919.443 695.265v-91.049c0-31.301-23.269-56.911-51.701-56.911-3.767 0-7.422.51-10.971 1.367 68.043 12.798 62.653 120.99 16.203 131.422-46.472 10.437-56.916-25.608-56.916-25.608v40.779h103.385z" opacity=".3" class="colordaebff svgShape"/><path fill="#daebff" d="M2083.164 223.895h8.533v539.702h-8.533z" class="colordaebff svgShape"/><path fill="#daebff" d="M2064.744 800.599v-39.946c0-13.733 10.219-24.963 22.675-24.963 12.488 0 22.7 11.23 22.7 24.963v39.946h-45.375z" class="colordaebff svgShape"/><path fill="#daebff" d="M2110.12 800.599v-39.946c0-13.733-10.212-24.963-22.7-24.963-1.643 0-3.244.219-4.804.598 29.858 5.615 27.485 53.08 7.109 57.651-20.391 4.582-24.98-11.23-24.98-11.23v17.89h45.375z" opacity=".3" class="colordaebff svgShape"/><path fill="#daebff" d="M2120.583 889.46c0 14.407-14.858 26.084-33.164 26.084-18.281 0-33.139-11.677-33.139-26.084 0-14.401 14.858-26.079 33.139-26.079 18.306 0 33.164 11.677 33.164 26.079z" class="colordaebff svgShape"/><path fill="#daebff" d="M2035.735 896.379V805.33c0-31.301 23.276-56.909 51.684-56.909 28.432 0 51.701 25.608 51.701 56.909v91.049h-103.385z" class="colordaebff svgShape"/><path fill="#daebff" d="M2139.121 896.379V805.33c0-31.301-23.269-56.909-51.701-56.909-3.764 0-7.419.508-10.971 1.365 68.044 12.798 62.653 120.99 16.203 131.424-46.469 10.437-56.916-25.61-56.916-25.61v40.778h103.385z" opacity=".3" class="colordaebff svgShape"/></g></svg>